<svg width="91" height="87" viewBox="0 0 91 87" fill="none" xmlns="http://www.w3.org/2000/svg">
<path d="M66.001 11.6501C67.4496 12.5916 68.6646 13.8505 69.5539 15.3315C70.4431 16.8124 70.9833 18.4765 71.1333 20.1973" stroke="#7566AA" stroke-width="0.75" stroke-miterlimit="10" stroke-linecap="round"/>
<path d="M79.9695 19.7379C78.3113 18.7355 76.4964 18.019 74.6006 17.6182" stroke="#7566AA" stroke-width="0.75" stroke-miterlimit="10" stroke-linecap="round"/>
<path d="M34.6837 4.77705C34.6953 4.7823 34.7081 4.7846 34.7208 4.78375C34.7335 4.7829 34.7458 4.77892 34.7566 4.77217C34.7674 4.76542 34.7764 4.7561 34.7827 4.74505C34.7891 4.73399 34.7926 4.72155 34.7929 4.70882C34.6974 3.8309 33.428 2.52996 34.0103 0.828726C34.5927 -0.87251 37.1543 0.191902 37.532 2.68917C37.532 2.71646 37.532 2.72101 37.532 2.68917C37.987 1.6657 39.9707 -0.308464 41.3903 1.24721C42.1729 2.11147 41.454 2.97119 39.9571 4.88622C39.9571 4.91351 39.9571 4.9408 39.9571 4.94535C40.7442 5.1273 44.6844 6.11893 43.142 8.9892C42.2957 10.5676 40.0435 9.73064 38.8059 8.48428C38.7973 8.47493 38.7864 8.468 38.7742 8.4642C38.7621 8.4604 38.7491 8.45985 38.7367 8.46262C38.7242 8.46538 38.7128 8.47135 38.7034 8.47994C38.694 8.48853 38.687 8.49944 38.6831 8.51158C38.3419 9.5214 37.2089 12.5054 35.5482 11.9959C33.8875 11.4865 33.7646 10.1764 34.7884 7.5063C34.7942 7.49296 34.7963 7.47831 34.7946 7.46387C34.7928 7.44943 34.7873 7.43571 34.7785 7.42413C34.7697 7.41255 34.7579 7.40352 34.7445 7.39798C34.731 7.39243 34.7163 7.39057 34.7019 7.39258C33.9284 7.5245 30.5297 8.08399 30.3613 6.29178C30.1566 3.76722 32.932 3.91733 34.6837 4.77705Z" fill="#6E9ED4"/>
<path d="M38.734 6.02794C38.8022 7.14693 37.8741 7.2652 37.1779 7.2652C36.837 7.2318 36.5203 7.07433 36.2879 6.82273C36.0556 6.57114 35.9238 6.24296 35.9176 5.90058C35.8493 4.86346 36.7866 4.49956 37.4737 4.62692C37.8212 4.65997 38.1436 4.82233 38.377 5.08181C38.6104 5.34129 38.7378 5.67897 38.734 6.02794Z" fill="#404092"/>
<path d="M27.9955 20.2656C27.9955 20.2656 26.0982 18.8282 26.9308 17.7502C27.5405 16.9541 28.5142 17.7502 29.2695 19.2421C29.2695 19.2421 30.2477 16.9678 31.3215 17.5864C31.9221 17.9412 31.9357 18.4279 31.2532 19.8335C31.2532 19.8335 33.3553 19.5469 33.3598 20.7432C33.3644 21.9396 32.5863 22.0396 30.9757 21.7622C30.9757 21.7622 31.8857 24.4323 30.4661 24.4914C29.315 24.5278 29.0192 24.2822 28.8281 22.6719C28.8281 22.6719 26.726 23.5453 26.2483 21.9896C26.0254 21.2618 26.4713 20.9297 27.9955 20.2656Z" fill="#729BD1"/>
<path d="M30.2345 21.139C30.0707 21.4119 30.1025 21.6575 29.5247 21.6257C28.9468 21.5938 28.8695 21.2754 28.8786 20.9616C28.8786 20.4567 28.9787 20.3475 29.5247 20.2884C30.2572 20.2065 30.4347 20.8069 30.2345 21.139Z" fill="#7566AA"/>
<path d="M4.6729 38.0329C4.6729 37.9602 4.6729 37.8419 4.58191 37.8692C3.90852 38.1239 0.355032 38.5833 0.48698 36.3908C0.605278 34.4394 1.76096 34.5713 4.45906 34.7715C4.47628 34.7735 4.49373 34.771 4.5097 34.7643C4.52567 34.7575 4.53962 34.7467 4.55017 34.733C4.56072 34.7192 4.56752 34.703 4.56989 34.6858C4.57226 34.6686 4.57013 34.6511 4.56371 34.635C4.26341 33.9573 3.19873 31.2007 5.08695 30.6867C6.20623 30.3819 6.77042 30.9596 7.27091 32.9611C7.27437 32.9794 7.28212 32.9967 7.29352 33.0114C7.30492 33.0262 7.31965 33.038 7.33651 33.046C7.35337 33.054 7.37188 33.0579 7.39052 33.0574C7.40917 33.0568 7.42743 33.0519 7.4438 33.043C8.06714 32.629 10.0464 30.341 11.3158 31.6783C12.2258 32.6518 11.8845 33.8617 10.0691 35.1581C10.01 35.2036 10.0691 35.3128 10.1465 35.3355C10.9836 35.6312 14.296 37.155 13.0857 39.2338C12.3259 40.5257 11.0337 40.5211 9.09997 38.9382C9.07974 38.9214 9.05627 38.909 9.03103 38.9017C9.00579 38.8945 8.97932 38.8925 8.95327 38.8959C8.92723 38.8993 8.90217 38.9081 8.87965 38.9216C8.85714 38.9351 8.83766 38.9531 8.82243 38.9745C8.33559 39.716 7.97614 43.0184 5.22799 42.1314C4.28161 41.8084 3.79022 40.6576 4.6729 38.0329Z" fill="#729BD1"/>
<path d="M8.6136 36.3682C8.71825 37.6646 8.02211 37.792 7.30778 37.792C6.59344 37.792 6.12935 37.2143 6.0156 36.3682C5.9155 35.6586 6.06565 34.899 7.31233 35.0673C8.29056 35.1992 8.55446 35.6541 8.6136 36.3682Z" fill="#2C3181"/>
<path d="M48.8893 14.4113C48.8893 14.4113 46.2958 13.0876 47.8246 11.4546C48.2341 10.9997 49.7993 11.6411 50.5864 12.6191C50.599 12.6384 50.617 12.6535 50.6381 12.6627C50.6592 12.672 50.6826 12.6748 50.7053 12.6709C50.728 12.6671 50.7491 12.6567 50.7659 12.641C50.7828 12.6253 50.7947 12.6051 50.8003 12.5827C51.0733 11.7912 52.4155 10.1764 53.4347 10.8087C54.3446 11.3682 54.2673 12.1415 53.3346 13.4925C53.2982 13.5425 53.3346 13.6426 53.3801 13.6289C53.9989 13.4561 55.6778 13.6289 55.6778 14.7161C55.6778 16.0443 54.8724 16.2399 52.643 16.0216C52.643 16.0216 53.3255 18.8009 51.9696 18.8009C51.0096 18.8009 50.6683 18.2232 50.368 16.4128C50.368 16.4128 48.1295 19.2239 47.3014 17.7774C46.7872 16.8904 47.1285 16.0625 48.8893 14.4113Z" fill="#4865AC"/>
<path d="M52.0507 14.7388C52.0506 14.8452 52.0282 14.9504 51.985 15.0477C51.9419 15.1449 51.8789 15.2321 51.8 15.3036C51.7212 15.3751 51.6284 15.4294 51.5274 15.463C51.4264 15.4965 51.3195 15.5086 51.2135 15.4985C50.9961 15.5014 50.7848 15.4265 50.6178 15.2871C50.4509 15.1478 50.3394 14.9533 50.3035 14.7388C50.2982 14.6245 50.3196 14.5105 50.3659 14.4059C50.4123 14.3012 50.4824 14.2088 50.5708 14.136C50.6591 14.0632 50.7631 14.0119 50.8747 13.9863C50.9863 13.9606 51.1023 13.9613 51.2135 13.9883C51.8187 14.0474 52.0507 14.3249 52.0507 14.7388Z" fill="#FDF7FA"/>
<path d="M56.2599 2.38894C56.3145 2.38894 56.3281 2.30251 56.2918 2.26158C56.0779 2.00685 55.4409 1.15168 56.0006 0.624024C56.4555 0.169148 56.9105 0.451171 57.4292 1.16078C57.4435 1.17388 57.4622 1.18116 57.4816 1.18116C57.5009 1.18116 57.5196 1.17388 57.5339 1.16078C57.7932 0.983376 58.5303 0.00539175 59.1536 0.601279C59.5722 1.00612 59.3447 1.29269 58.7351 2.26613C58.7281 2.27644 58.7237 2.28827 58.7223 2.30063C58.7209 2.31298 58.7225 2.3255 58.727 2.3371C58.7315 2.34871 58.7387 2.35907 58.748 2.3673C58.7573 2.37553 58.7685 2.38139 58.7806 2.38439C59.1309 2.47082 60.2593 2.79833 60.1046 3.57162C60.009 4.06288 59.413 4.30397 58.1072 3.87184C58.0999 3.86865 58.092 3.8674 58.0842 3.8682C58.0763 3.86901 58.0688 3.87185 58.0624 3.87644C58.0559 3.88103 58.0508 3.88721 58.0475 3.89438C58.0442 3.90155 58.0428 3.90946 58.0435 3.91732C58.0799 4.23574 58.1618 5.52303 57.088 5.40477C56.7604 5.36838 56.3191 5.19097 56.542 4.0083C56.542 3.97191 56.5101 3.89913 56.4828 3.93097C56.219 4.25848 54.8995 4.49502 54.8312 3.52613C54.7766 2.82562 55.1588 2.5527 56.2599 2.38894Z" fill="#4869AD"/>
<path d="M57.902 2.78464C57.9164 2.85386 57.9144 2.92546 57.8963 2.99379C57.8781 3.06211 57.8443 3.12527 57.7975 3.17825C57.7507 3.23123 57.6922 3.27257 57.6266 3.299C57.561 3.32543 57.4902 3.33621 57.4197 3.33049C57.3505 3.33021 57.2822 3.31546 57.219 3.2872C57.1559 3.25893 57.0994 3.21777 57.0531 3.16636C57.0068 3.11496 56.9718 3.05444 56.9503 2.9887C56.9288 2.92296 56.9213 2.85345 56.9283 2.78464C56.9265 2.71893 56.9377 2.6535 56.9611 2.59209C56.9846 2.53069 57.02 2.47452 57.0652 2.42678C57.1104 2.37905 57.1646 2.34069 57.2246 2.31389C57.2847 2.2871 57.3494 2.2724 57.4152 2.27063C57.811 2.27063 57.8701 2.50262 57.902 2.78464Z" fill="white"/>
<path d="M8.48118 29.4722C8.45388 29.3221 9.16367 22.6036 18.8459 18.7554" stroke="#18418D" stroke-width="0.5" stroke-miterlimit="10" stroke-linecap="round"/>
<path d="M16.4479 15.8214C16.4479 15.8214 15.6971 19.656 14.4004 21.0843" stroke="#18418D" stroke-width="0.5" stroke-miterlimit="10"/>
<path d="M11.7382 19.8789C11.7382 19.8789 11.993 22.2761 11.2832 23.8318" stroke="#18418D" stroke-width="0.5" stroke-miterlimit="10"/>
<path d="M18.3732 22.5672C18.2277 22.4808 14.019 22.3898 9.66016 26.1016" stroke="#18418D" stroke-width="0.5" stroke-miterlimit="10"/>
<path d="M17.7772 14.8617C17.7772 15.4439 16.981 15.8215 16.4122 15.8215C16.2753 15.8145 16.1411 15.7804 16.0175 15.7211C15.8939 15.6618 15.7834 15.5785 15.6923 15.476C15.6013 15.3736 15.5316 15.254 15.4872 15.1243C15.4428 14.9946 15.4248 14.8574 15.434 14.7207C15.4697 14.4163 15.6132 14.1347 15.8385 13.927C16.0638 13.7192 16.3561 13.599 16.6625 13.588C17.4996 13.588 17.7772 14.2794 17.7772 14.8617Z" fill="#18418D"/>
<path d="M12.8083 19.233C12.8086 19.3663 12.7815 19.4983 12.7286 19.6208C12.6757 19.7432 12.5983 19.8535 12.501 19.9448C12.4037 20.0361 12.2887 20.1064 12.1631 20.1514C12.0375 20.1964 11.9041 20.2151 11.7709 20.2064C11.5049 20.2126 11.247 20.114 11.053 19.9319C10.8589 19.7498 10.7442 19.4988 10.7335 19.233C10.7216 19.0781 10.7447 18.9226 10.8011 18.778C10.8576 18.6333 10.9459 18.5033 11.0596 18.3975C11.1733 18.2917 11.3094 18.2129 11.4578 18.1669C11.6061 18.121 11.7629 18.1091 11.9165 18.1322C12.8675 18.2049 12.8811 18.7007 12.8083 19.233Z" fill="#18418D"/>
<path d="M20.6883 18.1914C20.6645 18.4703 20.5443 18.7323 20.3484 18.9324C20.1525 19.1324 19.893 19.258 19.6145 19.2876C18.882 19.3513 18.2859 18.8009 18.4406 18.2141C18.505 17.9376 18.6516 17.687 18.8611 17.4954C19.0706 17.3038 19.3333 17.1801 19.6145 17.1406C19.8913 17.1534 20.1538 17.2676 20.3518 17.4613C20.5498 17.6551 20.6696 17.915 20.6883 18.1914Z" fill="#18418D"/>
<path d="M20.0705 22.3943C20.0705 22.6453 19.9708 22.8859 19.7933 23.0634C19.6158 23.2408 19.3751 23.3405 19.1241 23.3405C18.8731 23.3405 18.6324 23.2408 18.4549 23.0634C18.2774 22.8859 18.1777 22.6453 18.1777 22.3943C18.2006 22.1434 18.3173 21.9104 18.5046 21.7417C18.6918 21.5731 18.9358 21.4813 19.1878 21.4846C19.4244 21.4917 19.6489 21.5907 19.8137 21.7605C19.9785 21.9304 20.0706 22.1577 20.0705 22.3943Z" fill="#18418D"/>
<path d="M19.8101 14.5114C19.9534 14.5114 20.0695 14.3953 20.0695 14.2521C20.0695 14.1089 19.9534 13.9928 19.8101 13.9928C19.6669 13.9928 19.5508 14.1089 19.5508 14.2521C19.5508 14.3953 19.6669 14.5114 19.8101 14.5114Z" fill="#8F88BE"/>
<path d="M22.5447 15.2892C22.5447 15.4848 22.2626 15.644 22.1352 15.644C22.0514 15.6363 21.9734 15.5983 21.9156 15.5372C21.8578 15.4761 21.8243 15.396 21.8213 15.3119C21.8233 15.2223 21.8553 15.1359 21.9122 15.0666C21.9691 14.9973 22.0477 14.9491 22.1352 14.9298C22.2626 14.948 22.5447 15.1072 22.5447 15.2892Z" fill="#1F3D8B"/>
<path d="M12.9854 15.0526C13.1839 15.0526 13.3449 14.8978 13.3449 14.7069C13.3449 14.516 13.1839 14.3612 12.9854 14.3612C12.7869 14.3612 12.626 14.516 12.626 14.7069C12.626 14.8978 12.7869 15.0526 12.9854 15.0526Z" fill="#293686"/>
<path d="M7.01164 21.9349C7.01164 22.0441 7.01164 22.1305 6.83875 22.1305C6.81166 22.1349 6.78391 22.133 6.7577 22.1249C6.73148 22.1168 6.70751 22.1027 6.68767 22.0837C6.66782 22.0647 6.65265 22.0414 6.64334 22.0156C6.63403 21.9898 6.63083 21.9622 6.634 21.9349C6.634 21.8303 6.68405 21.7439 6.83875 21.7439C6.99344 21.7439 7.01164 21.8303 7.01164 21.9349Z" fill="#273A8B"/>
<path d="M9.65936 21.3755C9.82018 21.3755 9.95056 21.2451 9.95056 21.0843C9.95056 20.9236 9.82018 20.7932 9.65936 20.7932C9.49854 20.7932 9.36816 20.9236 9.36816 21.0843C9.36816 21.2451 9.49854 21.3755 9.65936 21.3755Z" fill="#626CB0"/>
<path d="M8.23127 25.3692C8.40214 25.3692 8.54066 25.2308 8.54066 25.0599C8.54066 24.8891 8.40214 24.7506 8.23127 24.7506C8.06039 24.7506 7.92188 24.8891 7.92188 25.0599C7.92188 25.2308 8.06039 25.3692 8.23127 25.3692Z" fill="#8783B6"/>
<path d="M13.8729 25.6831C13.8606 25.7635 13.8189 25.8364 13.7558 25.8876C13.6927 25.9389 13.6129 25.9649 13.5317 25.9606C13.3451 25.9606 13.1904 25.9197 13.1904 25.7786C13.1904 25.6376 13.2769 25.3693 13.4634 25.3693C13.65 25.3693 13.8729 25.5421 13.8729 25.6831Z" fill="#1A408D"/>
<path d="M21.1708 20.4884C21.3266 20.4884 21.4529 20.3621 21.4529 20.2063C21.4529 20.0506 21.3266 19.9243 21.1708 19.9243C21.015 19.9243 20.8887 20.0506 20.8887 20.2063C20.8887 20.3621 21.015 20.4884 21.1708 20.4884Z" fill="#B1AED0"/>
<path d="M22.7131 10.5903C22.7131 10.6441 22.7025 10.6973 22.6819 10.747C22.6613 10.7967 22.6312 10.8418 22.5931 10.8798C22.5551 10.9178 22.51 10.948 22.4603 10.9685C22.4106 10.9891 22.3574 10.9997 22.3036 10.9997C22.0806 10.9997 21.8213 10.8632 21.8213 10.6404C21.8213 10.4175 22.0124 10.1263 22.2353 10.1263C22.3565 10.1362 22.4704 10.1879 22.5576 10.2725C22.6448 10.3572 22.6997 10.4695 22.7131 10.5903Z" fill="#263685"/>
<path d="M46.5781 8.01121C46.7601 8.01121 73.8048 5.75957 81.4487 29.4131" stroke="#7566AA" stroke-width="0.75" stroke-miterlimit="10" stroke-linecap="round"/>
<path d="M68.5666 5.43201C68.4347 5.56392 62.2605 5.88688 56.6641 8.71621" stroke="#7566AA" stroke-width="0.75" stroke-miterlimit="10" stroke-linecap="round"/>
<path d="M69.9457 10.2856C69.9457 10.2856 64.4858 8.25684 61.9424 6.71936" stroke="#7566AA" stroke-width="0.75" stroke-miterlimit="10" stroke-linecap="round"/>
<path d="M71.1065 19.2512C71.0655 19.2284 66.8568 23.9773 72.5124 31.9377C72.5124 31.9377 75.8566 22.4944 71.1065 19.2512Z" fill="#7566AA"/>
<path d="M71.6747 26.238C71.6428 26.1471 72.1752 22.7446 71.3926 20.8341" stroke="white" stroke-width="0.5" stroke-miterlimit="10" stroke-linecap="round"/>
<path d="M81.1339 28.6534C81.1339 28.6534 78.1901 38.2058 81.6571 43.2095C81.6571 43.2231 85.884 33.2386 81.1339 28.6534Z" fill="#7566AA"/>
<path d="M81.498 30.3593C81.498 30.3593 82.3853 35.3037 82.1487 36.7821" stroke="white" stroke-width="0.5" stroke-miterlimit="10" stroke-linecap="round"/>
<path d="M79.873 19.1965C79.873 19.1965 80.1733 25.8468 90.5108 29.786C90.5108 29.786 87.9219 20.543 79.873 19.1965Z" fill="#7566AA"/>
<path d="M81.4434 20.6249C81.4434 20.6249 86.3573 24.6414 87.0989 26.4473" stroke="white" stroke-width="0.5" stroke-miterlimit="10" stroke-linecap="round"/>
<path d="M67.6436 5.54116C67.6436 5.54116 70.8285 10.1354 77.7489 5.54116C77.7489 5.54116 81.034 3.16216 82.9586 3.87177C82.9586 3.87177 75.7652 0.23276 71.5565 2.09775C69.9678 2.87531 68.6166 4.06437 67.6436 5.54116Z" fill="#7566AA"/>
<path d="M68.668 5.66402C68.668 5.66402 71.4525 6.1189 73.823 5.09998" stroke="white" stroke-width="0.5" stroke-miterlimit="10" stroke-linecap="round"/>
<path d="M68.9043 9.83065C68.9043 9.83065 68.2992 14.9253 79.3464 13.9245C79.3464 13.9473 73.8046 6.95584 68.9043 9.83065Z" fill="#7566AA"/>
<path d="M69.7188 10.1582C71.3823 11.3235 73.2931 12.0879 75.3015 12.3916" stroke="white" stroke-width="0.5" stroke-miterlimit="10" stroke-linecap="round"/>
<path d="M52.7789 80.9005C52.7919 80.8997 52.8045 80.8957 52.8155 80.8888C52.8265 80.8819 52.8356 80.8724 52.8419 80.8611C52.8483 80.8497 52.8517 80.837 52.8518 80.824C52.8519 80.811 52.8487 80.7982 52.8426 80.7868C52.3285 80.0681 50.5677 79.5586 50.2628 77.78C49.958 76.0015 52.7016 75.6922 54.2485 77.6891C54.2485 77.7118 54.2713 77.7118 54.2713 77.6891C54.1666 76.5746 54.9401 73.8863 56.9375 74.555C58.0432 74.9234 57.8475 76.0242 57.4699 78.4396C57.4699 78.4714 57.4699 78.4942 57.5108 78.4851C58.2843 78.2577 62.2063 77.2069 62.2564 80.4684C62.2882 82.256 59.9177 82.6245 58.2252 82.1377C58.2131 82.1336 58.2002 82.1326 58.1877 82.135C58.1752 82.1373 58.1635 82.1429 58.1538 82.1512C58.1442 82.1595 58.1368 82.1702 58.1326 82.1822C58.1283 82.1942 58.1273 82.2071 58.1296 82.2196C58.3298 83.2704 58.7894 86.4272 57.0922 86.7911C55.3951 87.155 54.658 86.0861 54.2394 83.2431C54.2372 83.2289 54.2314 83.2156 54.2227 83.2042C54.214 83.1928 54.2025 83.1838 54.1894 83.1779C54.1764 83.172 54.162 83.1695 54.1477 83.1706C54.1334 83.1716 54.1196 83.1762 54.1075 83.184C53.4978 83.6752 50.8043 85.8222 49.7851 84.3393C48.32 82.2242 50.8088 80.996 52.7789 80.9005Z" fill="#6E9ED4"/>
<path d="M56.9102 80.018C57.5199 80.9641 56.7646 81.5191 56.1595 81.8602C55.8445 81.9979 55.4898 82.0147 55.1632 81.9072C54.8366 81.7998 54.5612 81.5758 54.3895 81.278C53.8208 80.4046 54.4669 79.6313 55.1266 79.4039C55.4466 79.2627 55.8081 79.2475 56.1388 79.3614C56.4695 79.4752 56.745 79.7097 56.9102 80.018Z" fill="#404092"/>
<path d="M62.0567 68.537C62.0567 68.537 59.6771 68.537 59.6816 67.1724C59.6816 66.1716 60.942 66.208 62.448 66.9358C62.448 66.9358 61.8338 64.525 63.0668 64.3749C63.7629 64.293 64.0723 64.6706 64.3863 66.1944C64.3863 66.1944 65.8741 64.6887 66.6157 65.6485C67.3574 66.6083 66.7932 67.1496 65.3417 67.9229C65.3417 67.9229 67.685 69.4968 66.5839 70.3883C65.6739 71.1116 65.3053 71.0979 64.1815 69.9335C64.1815 69.9335 63.044 71.9076 61.72 70.9569C61.0967 70.5248 61.2514 69.9926 62.0567 68.537Z" fill="#729BD1"/>
<path d="M64.3628 67.8728C64.3992 68.1867 64.5766 68.3641 64.0943 68.6916C64.0293 68.7512 63.9518 68.7955 63.8674 68.8213C63.7831 68.8471 63.694 68.8537 63.6067 68.8406C63.5195 68.8275 63.4363 68.7951 63.3632 68.7457C63.2901 68.6963 63.229 68.6312 63.1844 68.5551C62.8932 68.1457 62.8932 68.0047 63.289 67.6454C63.8168 67.1177 64.3218 67.4862 64.3628 67.8728Z" fill="#7566AA"/>
<path d="M84.5142 54.9725C84.4732 54.9043 84.3504 54.8633 84.3276 54.9361C84.091 55.6139 82.1482 58.6251 80.5557 57.1104C79.1407 55.7458 79.9734 54.9543 81.8843 53.0165C81.8958 53.0039 81.904 52.9886 81.9082 52.972C81.9124 52.9555 81.9125 52.9381 81.9085 52.9215C81.9044 52.9049 81.8964 52.8895 81.885 52.8768C81.8737 52.864 81.8594 52.8542 81.8434 52.8482C81.1336 52.639 78.3354 51.6746 79.1635 49.9006C79.6549 48.8499 80.4602 48.7862 82.3166 49.705C82.3329 49.714 82.3512 49.7189 82.3698 49.7194C82.3885 49.7199 82.407 49.7161 82.4239 49.7081C82.4407 49.7001 82.4554 49.6882 82.4668 49.6735C82.4782 49.6587 82.486 49.6415 82.4894 49.6231C82.5759 48.8771 82.1073 45.8932 83.9454 45.784C85.2877 45.7067 85.9838 46.762 85.8018 48.9681C85.8018 49.0454 85.9201 49.0682 85.9883 49.0273C86.7573 48.5724 90.056 47.0349 90.8613 49.3002C91.3618 50.7103 90.5201 51.6928 88.0631 52.1477C88.0372 52.1525 88.0126 52.1625 87.9908 52.1772C87.969 52.192 87.9505 52.211 87.9364 52.2332C87.9223 52.2554 87.913 52.2803 87.9089 52.3063C87.9049 52.3323 87.9063 52.3588 87.913 52.3842C88.1678 53.2349 90.4564 55.6411 88.004 57.165C87.1622 57.7245 85.9929 57.356 84.5142 54.9725Z" fill="#729BD1"/>
<path d="M85.8027 50.9014C86.8628 51.6611 86.508 52.2661 86.0484 52.821C85.5889 53.376 84.8472 53.3487 84.1238 52.8893C83.5187 52.5026 83.0364 51.9022 83.9691 51.0697C84.7016 50.3965 85.2158 50.4875 85.8027 50.9014Z" fill="#2C3181"/>
<path d="M35.7031 74.1774C35.7031 74.1774 33.6829 76.2744 32.5636 74.3411C32.2633 73.818 33.3143 72.5216 34.4791 72.0349C34.5009 72.0282 34.5202 72.0154 34.5349 71.998C34.5496 71.9806 34.5589 71.9594 34.5618 71.9368C34.5647 71.9143 34.561 71.8913 34.5511 71.8708C34.5413 71.8503 34.5258 71.833 34.5064 71.8211C33.8285 71.3298 32.6865 69.574 33.5691 68.7871C34.3608 68.0866 35.0843 68.3686 36.108 69.6559C36.1489 69.7059 36.249 69.7105 36.249 69.6559C36.249 69.0145 36.9088 67.4543 37.9598 67.7682C39.2292 68.1548 39.1837 68.9827 38.3329 71.0524C38.3329 71.0524 41.1857 71.207 40.7944 72.4989C40.5169 73.4086 39.8844 73.5815 38.0645 73.3449C38.0645 73.3449 40.1119 76.2971 38.4876 76.6746C37.4684 76.9021 36.7723 76.338 35.7031 74.1774Z" fill="#4865AC"/>
<path d="M36.9324 71.2389C37.0341 71.2696 37.1283 71.3213 37.2088 71.3906C37.2893 71.4599 37.3544 71.5453 37.3999 71.6413C37.4453 71.7373 37.4701 71.8418 37.4727 71.948C37.4752 72.0542 37.4555 72.1598 37.4147 72.2579C37.3555 72.4669 37.2234 72.6479 37.0423 72.7681C36.8612 72.8882 36.6431 72.9396 36.4274 72.9129C36.3165 72.8848 36.2137 72.8314 36.1271 72.7568C36.0404 72.6821 35.9724 72.5884 35.9282 72.4829C35.8841 72.3775 35.8651 72.2632 35.8728 72.1491C35.8804 72.0351 35.9145 71.9243 35.9724 71.8257C36.2044 71.2662 36.532 71.1252 36.9324 71.2389Z" fill="#FDF7FA"/>
<path d="M83.7189 58.8618C83.7462 59.0119 83.0364 65.7623 73.3496 69.6333" stroke="#18418D" stroke-width="0.5" stroke-miterlimit="10" stroke-linecap="round"/>
<path d="M75.752 72.5763C75.752 72.5763 76.5027 68.7235 77.804 67.2906" stroke="#18418D" stroke-width="0.5" stroke-miterlimit="10"/>
<path d="M80.4654 68.5096C80.4654 68.5096 80.2106 66.0988 80.9204 64.5386" stroke="#18418D" stroke-width="0.5" stroke-miterlimit="10"/>
<path d="M73.8262 65.7803C73.9763 65.8713 78.185 65.9577 82.5438 62.2323" stroke="#18418D" stroke-width="0.5" stroke-miterlimit="10"/>
<path d="M74.4238 73.5451C74.4238 72.9583 75.2201 72.5762 75.7888 72.5762C75.9261 72.5843 76.0605 72.6195 76.1841 72.6797C76.3078 72.74 76.4183 72.8242 76.5092 72.9274C76.6002 73.0306 76.6698 73.1507 76.714 73.2809C76.7583 73.4112 76.7763 73.5489 76.767 73.6861C76.7305 73.9913 76.5862 74.2735 76.3602 74.4819C76.1342 74.6903 75.8413 74.8114 75.534 74.8233C74.7059 74.8233 74.4238 74.1273 74.4238 73.5451Z" fill="#18418D"/>
<path d="M79.3957 69.151C79.3948 69.0172 79.4215 68.8847 79.4741 68.7617C79.5267 68.6387 79.604 68.5279 79.7014 68.4361C79.7987 68.3444 79.9139 68.2736 80.0398 68.2284C80.1657 68.1831 80.2996 68.1642 80.4331 68.173C80.6996 68.168 80.9574 68.2676 81.1514 68.4504C81.3453 68.6332 81.4598 68.8847 81.4705 69.151C81.4825 69.3064 81.4592 69.4625 81.4026 69.6077C81.3459 69.7529 81.2572 69.8834 81.1431 69.9896C81.029 70.0958 80.8924 70.175 80.7435 70.2211C80.5946 70.2673 80.4372 70.2793 80.283 70.2563C79.3366 70.1835 79.3229 69.6832 79.3957 69.151Z" fill="#18418D"/>
<path d="M71.5117 70.1973C71.5362 69.9181 71.6565 69.656 71.8522 69.4554C72.0479 69.2547 72.307 69.1279 72.5855 69.0965C73.3226 69.0328 73.9186 69.5832 73.7639 70.1745C73.6989 70.452 73.5517 70.7033 73.3414 70.8957C73.1311 71.088 72.8677 71.2124 72.5855 71.2526C72.3079 71.2397 72.0449 71.1249 71.8468 70.9302C71.6486 70.7354 71.5293 70.4745 71.5117 70.1973Z" fill="#18418D"/>
<path d="M72.1292 65.9714C72.1458 65.7312 72.253 65.5063 72.4291 65.342C72.6052 65.1778 72.837 65.0864 73.0779 65.0864C73.3187 65.0864 73.5505 65.1778 73.7266 65.342C73.9027 65.5063 74.0099 65.7312 74.0265 65.9714C74.008 66.226 73.8934 66.464 73.7058 66.6372C73.5182 66.8104 73.2718 66.9057 73.0164 66.9039C72.8969 66.9009 72.7792 66.8745 72.6699 66.826C72.5606 66.7775 72.4619 66.708 72.3795 66.6214C72.2972 66.5348 72.2326 66.4329 72.1897 66.3213C72.1467 66.2098 72.1262 66.0909 72.1292 65.9714Z" fill="#18418D"/>
<path d="M72.3892 74.414C72.5325 74.414 72.6486 74.2979 72.6486 74.1547C72.6486 74.0115 72.5325 73.8954 72.3892 73.8954C72.246 73.8954 72.1299 74.0115 72.1299 74.1547C72.1299 74.2979 72.246 74.414 72.3892 74.414Z" fill="#8F88BE"/>
<path d="M69.6543 73.0993C69.6543 72.8992 69.9364 72.74 70.0638 72.74C70.1476 72.7477 70.2257 72.7857 70.2835 72.8468C70.3412 72.9079 70.3748 72.988 70.3777 73.0721C70.3766 73.1619 70.3449 73.2487 70.2878 73.3182C70.2307 73.3876 70.1517 73.4356 70.0638 73.4541C69.9364 73.4541 69.6543 73.2949 69.6543 73.0993Z" fill="#1F3D8B"/>
<path d="M79.2188 74.0455C79.4173 74.0455 79.5783 73.8908 79.5783 73.6998C79.5783 73.5089 79.4173 73.3541 79.2188 73.3541C79.0203 73.3541 78.8594 73.5089 78.8594 73.6998C78.8594 73.8908 79.0203 74.0455 79.2188 74.0455Z" fill="#293686"/>
<path d="M85.1934 66.4354C85.1934 66.3263 85.1934 66.2398 85.3663 66.2398C85.3933 66.2354 85.4211 66.2374 85.4473 66.2455C85.4735 66.2536 85.4975 66.2677 85.5173 66.2867C85.5372 66.3056 85.5524 66.3289 85.5617 66.3548C85.571 66.3806 85.5742 66.4082 85.571 66.4354C85.571 66.5401 85.521 66.6265 85.3663 66.6265C85.2116 66.6265 85.1934 66.5401 85.1934 66.4354Z" fill="#273A8B"/>
<path d="M82.5451 67.5816C82.7059 67.5816 82.8363 67.4513 82.8363 67.2905C82.8363 67.1297 82.7059 66.9994 82.5451 66.9994C82.3843 66.9994 82.2539 67.1297 82.2539 67.2905C82.2539 67.4513 82.3843 67.5816 82.5451 67.5816Z" fill="#626CB0"/>
<path d="M83.9735 63.6061C84.1443 63.6061 84.2828 63.4676 84.2828 63.2967C84.2828 63.1259 84.1443 62.9874 83.9735 62.9874C83.8026 62.9874 83.6641 63.1259 83.6641 63.2967C83.6641 63.4676 83.8026 63.6061 83.9735 63.6061Z" fill="#8783B6"/>
<path d="M78.332 62.669C78.3433 62.5883 78.3848 62.5148 78.4481 62.4633C78.5114 62.4118 78.5919 62.3862 78.6733 62.3916C78.8598 62.3916 79.0145 62.4325 79.0145 62.5735C79.0145 62.7145 78.9281 62.9829 78.737 62.9829C78.5459 62.9829 78.332 62.8101 78.332 62.669Z" fill="#1A408D"/>
<path d="M71.0282 68.455C71.184 68.455 71.3103 68.3288 71.3103 68.173C71.3103 68.0173 71.184 67.891 71.0282 67.891C70.8724 67.891 70.7461 68.0173 70.7461 68.173C70.7461 68.3288 70.8724 68.455 71.0282 68.455Z" fill="#B1AED0"/>
<path d="M69.4863 77.8346C69.4863 77.726 69.5295 77.6219 69.6063 77.5451C69.6831 77.4683 69.7872 77.4252 69.8958 77.4252C70.1188 77.4252 70.3781 77.5616 70.3781 77.7845C70.3781 78.0074 70.187 78.2985 69.9641 78.2985C69.8426 78.2896 69.7282 78.2382 69.6409 78.1533C69.5535 78.0685 69.4988 77.9557 69.4863 77.8346Z" fill="#263685"/>
<path d="M24.4009 77.0613C22.9517 76.1194 21.7363 74.8597 20.847 73.3779C19.9577 71.8962 19.4179 70.2312 19.2686 68.5096" stroke="#7566AA" stroke-width="0.75" stroke-miterlimit="10" stroke-linecap="round"/>
<path d="M10.0098 68.8417C11.6686 69.8459 13.4854 70.5626 15.3832 70.9614" stroke="#7566AA" stroke-width="0.75" stroke-miterlimit="10" stroke-linecap="round"/>
<path d="M43.4057 80.5912C43.2283 80.5912 16.179 82.8428 8.53516 59.212" stroke="#7566AA" stroke-width="0.75" stroke-miterlimit="10" stroke-linecap="round"/>
<path d="M21.416 83.1703C21.5525 83.0338 27.7222 82.7154 33.3231 79.8861" stroke="#7566AA" stroke-width="0.75" stroke-miterlimit="10" stroke-linecap="round"/>
<path d="M20.043 78.3304C20.043 78.3304 25.5029 80.3592 28.0417 81.8967" stroke="#7566AA" stroke-width="0.75" stroke-miterlimit="10" stroke-linecap="round"/>
<path d="M19.2463 68.919C19.2827 68.9463 23.4959 64.1974 17.8358 56.2325C17.8358 56.228 14.4917 65.6758 19.2463 68.919Z" fill="#7566AA"/>
<path d="M18.8008 61.6865C18.8235 61.7775 18.4595 65.18 18.9964 67.0904" stroke="white" stroke-width="0.5" stroke-miterlimit="10" stroke-linecap="round"/>
<path d="M8.6856 60.1763C8.6856 60.1763 11.6248 50.6239 8.16236 45.6203C8.16236 45.6066 3.93548 55.5911 8.6856 60.1763Z" fill="#7566AA"/>
<path d="M8.5946 58.0885C8.5946 58.0885 7.68462 53.144 7.94396 51.6656" stroke="white" stroke-width="0.5" stroke-miterlimit="10" stroke-linecap="round"/>
<path d="M10.6377 69.7833C10.6377 69.7833 10.3329 63.133 0 59.1984C0 59.1984 2.5889 68.4414 10.6377 69.7833Z" fill="#7566AA"/>
<path d="M8.81766 67.4407C8.81766 67.4407 3.90375 63.4241 3.16211 61.6183" stroke="white" stroke-width="0.5" stroke-miterlimit="10" stroke-linecap="round"/>
<path d="M22.3404 83.0248C22.3404 83.0248 19.1555 78.4306 12.2396 83.0248C12.2396 83.0248 8.95001 85.4038 7.02539 84.6942C7.02539 84.6942 14.2234 88.3332 18.4275 86.4682C20.017 85.692 21.3686 84.5026 22.3404 83.0248Z" fill="#7566AA"/>
<path d="M21.3165 82.9384C21.3165 82.9384 18.532 82.4835 16.166 83.4979" stroke="white" stroke-width="0.5" stroke-miterlimit="10" stroke-linecap="round"/>
<path d="M21.08 78.7262C21.08 78.7262 21.6852 73.6361 10.6152 74.6323C10.638 74.6186 16.1843 81.6101 21.08 78.7262Z" fill="#7566AA"/>
<path d="M20.0189 78.4441C18.3541 77.2782 16.4416 76.5137 14.4316 76.2107" stroke="white" stroke-width="0.5" stroke-miterlimit="10" stroke-linecap="round"/>
<path d="M25.7476 49.4384C25.4921 49.4384 25.2366 49.4228 24.981 49.3916C24.7255 49.376 24.5552 49.3448 24.47 49.298C24.47 49.298 24.504 49.2824 24.5722 49.2512C24.3507 49.2512 24.0782 49.2122 23.7545 49.1342C23.4479 49.0718 23.2009 48.986 23.0135 48.8768C22.9794 48.8456 22.9538 48.7988 22.9368 48.7364C22.9198 48.674 22.8857 48.6272 22.8346 48.596C22.7494 48.5336 22.6387 48.4946 22.5024 48.479C22.3832 48.4478 22.2724 48.4088 22.1702 48.362V48.2216H21.9403C21.8891 48.0968 21.8125 47.9954 21.7103 47.9174C21.6251 47.8238 21.5484 47.7224 21.4803 47.6132C21.4462 47.6288 21.4036 47.6288 21.3525 47.6132C21.2844 47.4572 21.1822 47.3246 21.0459 47.2154C20.9096 47.1062 20.8074 46.9736 20.7393 46.8176C20.7052 46.7396 20.6541 46.646 20.586 46.5368C20.5178 46.4276 20.4667 46.3262 20.4326 46.2326V46.2092C20.4326 46.1624 20.4412 46.1156 20.4582 46.0688C20.4923 46.022 20.5008 45.9752 20.4837 45.9284L20.2793 45.8114C20.2793 45.7802 20.2793 45.7022 20.2793 45.5774C20.2793 45.437 20.2793 45.32 20.2793 45.2264C20.2793 45.1172 20.2793 45.086 20.2793 45.1328C20.2793 45.008 20.2282 44.8676 20.126 44.7116C20.0408 44.54 20.0068 44.4386 20.0238 44.4074L20.1771 44.3606C20.1601 44.2982 20.1516 44.2436 20.1516 44.1968C20.1686 44.15 20.1771 44.0954 20.1771 44.033C20.1771 43.9706 20.143 43.916 20.0749 43.8692C20.0068 43.8224 20.0068 43.7522 20.0749 43.6586H20.1771C20.2282 43.5806 20.2623 43.487 20.2793 43.3778C20.2964 43.2686 20.3134 43.175 20.3304 43.097C20.4156 43.0814 20.4837 43.0658 20.5348 43.0502C20.603 43.019 20.6711 43.0034 20.7393 43.0034C20.7904 43.0658 20.833 43.1048 20.867 43.1204C20.9011 43.136 20.9267 43.1906 20.9437 43.2842C20.8415 43.3778 20.8585 43.4558 20.9948 43.5182C20.9948 43.4402 20.9863 43.409 20.9692 43.4246C20.9522 43.4246 20.9692 43.409 21.0203 43.3778V43.6586C20.9352 43.7678 20.8841 43.9472 20.867 44.1968C20.85 44.4308 20.8415 44.6804 20.8415 44.9456C20.8415 45.2108 20.8244 45.4214 20.7904 45.5774C20.8926 45.5774 21.0033 45.6788 21.1226 45.8816C21.2588 46.0844 21.3781 46.3028 21.4803 46.5368C21.5825 46.7552 21.6251 46.9112 21.6081 47.0048C21.6421 47.0048 21.6762 47.0048 21.7103 47.0048C21.7614 46.9892 21.804 46.9814 21.838 46.9814C21.8551 47.0594 21.8721 47.1218 21.8891 47.1686C21.9062 47.2154 21.9488 47.27 22.0169 47.3324C22.085 47.3012 22.1276 47.2856 22.1447 47.2856C22.2298 47.2856 22.298 47.3246 22.3491 47.4026C22.4172 47.4806 22.4769 47.5508 22.528 47.6132C22.562 47.5508 22.5961 47.5352 22.6302 47.5664C22.6642 47.582 22.7068 47.5976 22.7579 47.6132C22.7579 47.7536 22.7835 47.816 22.8346 47.8004C22.9027 47.7692 22.9879 47.7692 23.0901 47.8004C23.1583 47.894 23.1923 47.9642 23.1923 48.011C23.1923 48.0422 23.2775 48.05 23.4479 48.0344C23.4308 47.9564 23.4223 47.9174 23.4223 47.9174C23.4223 47.9174 23.4649 47.9096 23.5501 47.894C23.533 47.9876 23.533 48.0656 23.5501 48.128C23.6012 48.128 23.6523 48.1358 23.7034 48.1514C23.7715 48.1514 23.8397 48.1592 23.9078 48.1748C23.993 48.1124 24.0185 48.0812 23.9845 48.0812C23.9674 48.0656 24.0526 48.05 24.24 48.0344C24.2741 48.0812 24.2911 48.128 24.2911 48.1748C24.3081 48.2216 24.3337 48.2684 24.3678 48.3152C24.4529 48.2684 24.4955 48.2372 24.4955 48.2216C24.5126 48.206 24.5807 48.1904 24.7 48.1748L24.8277 48.3152L24.9555 48.2684C24.9896 48.1904 25.0151 48.1436 25.0321 48.128C25.0492 48.1124 25.1088 48.0968 25.211 48.0812C25.2621 48.1592 25.3217 48.1982 25.3899 48.1982C25.4239 48.1982 25.458 48.1982 25.4921 48.1982C25.5432 48.1826 25.5858 48.1748 25.6199 48.1748C25.6369 48.1436 25.6454 48.1202 25.6454 48.1046C25.6454 48.0734 25.6539 48.05 25.671 48.0344V48.128H25.8243V48.0344L25.9265 48.128C26.0457 48.0812 26.0883 48.0734 26.0543 48.1046C26.0202 48.1202 26.0628 48.1436 26.182 48.1748C26.2842 48.1436 26.3268 48.128 26.3098 48.128C26.3098 48.1124 26.3694 48.0968 26.4886 48.0812L26.5398 47.9408C26.6079 47.972 26.676 47.9876 26.7442 47.9876V47.8472H26.8719C26.9571 47.8472 27.0423 47.8472 27.1275 47.8472C27.2126 47.8316 27.2893 47.816 27.3574 47.8004V47.66C27.4256 47.6444 27.4937 47.6288 27.5619 47.6132C27.63 47.5976 27.6981 47.582 27.7663 47.5664L27.8174 47.7536C27.8174 47.7536 27.8344 47.7224 27.8685 47.66C27.9366 47.6288 28.0133 47.5742 28.0985 47.4962C28.1837 47.4182 28.2603 47.3558 28.3285 47.309C28.3796 47.3402 28.4051 47.3714 28.4051 47.4026C28.4221 47.4182 28.4647 47.4182 28.5329 47.4026C28.584 47.3714 28.6692 47.3324 28.7884 47.2856C28.9247 47.2388 29.0099 47.192 29.0439 47.1452C29.078 47.0984 29.095 47.0594 29.095 47.0282C29.1121 46.9814 29.1291 46.9346 29.1461 46.8878C29.1802 46.8878 29.1972 46.8956 29.1972 46.9112C29.2143 46.9112 29.2398 46.9034 29.2739 46.8878L29.3761 46.724C29.4102 46.7708 29.4443 46.7942 29.4783 46.7942C29.5124 46.7942 29.5465 46.7864 29.5805 46.7708C29.6146 46.7552 29.6572 46.7396 29.7083 46.724C29.6742 46.646 29.6487 46.6148 29.6316 46.6304C29.6316 46.6304 29.6316 46.5836 29.6316 46.49H29.7083C29.7253 46.5524 29.7594 46.607 29.8105 46.6538C29.8957 46.4822 30.0064 46.3652 30.1427 46.3028C30.279 46.2248 30.4067 46.1156 30.526 45.9752C30.5771 45.8972 30.6282 45.8192 30.6793 45.7412C30.7304 45.6476 30.773 45.5618 30.8071 45.4838C30.8411 45.4838 30.8667 45.4916 30.8837 45.5072C30.9008 45.5228 30.9178 45.5306 30.9348 45.5306C30.9859 45.5306 31.0285 45.4682 31.0626 45.3434C31.1137 45.2186 31.1478 45.125 31.1648 45.0626C31.2159 45.0782 31.2415 45.0938 31.2415 45.1094C31.2415 45.1094 31.2755 45.1016 31.3437 45.086C31.3437 45.0548 31.3607 44.9768 31.3948 44.852C31.4289 44.7272 31.4544 44.7038 31.4714 44.7818C31.5566 44.7506 31.6077 44.7428 31.6248 44.7584C31.6418 44.774 31.6759 44.7974 31.727 44.8286V44.735C31.6418 44.6882 31.5907 44.657 31.5737 44.6414C31.6418 44.5946 31.727 44.4932 31.8292 44.3372C31.9314 44.1812 32.0251 44.0252 32.1103 43.8692C32.2125 43.6976 32.2636 43.5806 32.2636 43.5182H32.4425C32.4765 43.4246 32.4936 43.3388 32.4936 43.2608C32.4936 43.1828 32.4936 43.097 32.4936 43.0034L32.5447 42.9566H32.5958C32.5958 43.019 32.5873 43.0502 32.5702 43.0502C32.5532 43.0346 32.5787 43.0502 32.6469 43.097C32.6639 43.0346 32.6809 43.0034 32.698 43.0034C32.715 42.9878 32.732 42.9566 32.7491 42.9098C32.6809 42.8786 32.6384 42.8552 32.6213 42.8396C32.6213 42.824 32.6128 42.785 32.5958 42.7226L32.6469 42.6758L32.8002 42.7226V42.6758C32.732 42.6446 32.7065 42.629 32.7235 42.629C32.7406 42.629 32.7406 42.5978 32.7235 42.5354H32.8002L32.7491 42.629H32.8002C32.8343 42.5666 32.8598 42.512 32.8768 42.4652C32.9109 42.4184 32.9365 42.3638 32.9535 42.3014C32.8683 42.2702 32.8172 42.2312 32.8002 42.1844C32.8002 42.122 32.8002 42.0518 32.8002 41.9738H32.9024V41.0846L32.9535 41.0378V40.9442C32.7661 40.9286 32.698 40.8194 32.7491 40.6166C32.5617 40.601 32.451 40.5308 32.4169 40.406C32.3999 40.2812 32.3232 40.1798 32.1869 40.1018C31.9314 39.9302 31.5651 39.782 31.0882 39.6572C30.6282 39.5324 30.1512 39.431 29.6572 39.353C29.1802 39.2594 28.7799 39.2048 28.4562 39.1892H28.3796V39.2594C28.3455 39.275 28.1837 39.2906 27.8941 39.3062C27.6045 39.3218 27.3234 39.3374 27.0508 39.353C26.7782 39.353 26.642 39.353 26.642 39.353C26.5057 39.3686 26.3524 39.4076 26.182 39.47C26.0287 39.5168 25.8839 39.5558 25.7476 39.587C25.6454 39.6026 25.5687 39.5792 25.5176 39.5168C25.3984 39.6728 25.2195 39.7898 24.981 39.8678C24.7425 39.9302 24.5126 39.9614 24.2911 39.9614C24.24 39.9146 24.1804 39.8756 24.1122 39.8444C24.1293 39.7976 24.1378 39.7586 24.1378 39.7274C24.1548 39.6806 24.1633 39.6338 24.1633 39.587C24.1633 39.4154 24.1208 39.2594 24.0356 39.119C23.9504 38.9786 23.8652 38.8304 23.7801 38.6744H23.9078L23.9334 38.6042L24.0356 38.768L24.01 38.6042H24.1378C24.1378 38.6354 24.1293 38.6666 24.1122 38.6978C24.1122 38.7134 24.1208 38.7368 24.1378 38.768C24.1719 38.7836 24.223 38.7914 24.2911 38.7914V38.768C24.24 38.7212 24.2059 38.6666 24.1889 38.6042L24.24 38.5808C24.3592 38.6276 24.4615 38.6276 24.5466 38.5808C24.6318 38.5184 24.7 38.5262 24.7511 38.6042C24.8362 38.5418 24.9555 38.495 25.1088 38.4638C25.2621 38.417 25.3814 38.3858 25.4665 38.3702C25.4665 38.4794 25.4836 38.5418 25.5176 38.5574C25.5687 38.5574 25.6539 38.5652 25.7732 38.5808V38.2766H25.8243C25.8924 38.2766 25.9861 38.261 26.1054 38.2298C26.2246 38.1986 26.3013 38.1752 26.3353 38.1596C26.3524 38.1752 26.3609 38.1986 26.3609 38.2298C26.3609 38.2454 26.3694 38.261 26.3864 38.2766C26.3864 38.261 26.4035 38.2064 26.4375 38.1128C26.6249 38.0816 26.7953 38.0348 26.9486 37.9724C27.119 37.8944 27.2893 37.8476 27.4597 37.832C27.4937 37.8944 27.5448 37.9334 27.613 37.949C27.6811 37.8866 27.7493 37.8476 27.8174 37.832C27.8004 37.754 27.8004 37.6916 27.8174 37.6448C27.8685 37.6604 27.9196 37.6682 27.9707 37.6682C28.0389 37.6682 28.107 37.6604 28.1751 37.6448L28.0985 37.598L28.0729 37.5278H28.1751C28.2944 37.5278 28.4051 37.5044 28.5073 37.4576C28.6095 37.4108 28.7373 37.3952 28.8906 37.4108C28.8736 37.3484 28.8736 37.286 28.8906 37.2236L28.9928 37.3172C29.0099 37.2392 29.0184 37.2002 29.0184 37.2002C29.0354 37.1846 29.078 37.1534 29.1461 37.1066L29.1717 37.0832C29.1887 37.1144 29.1972 37.1456 29.1972 37.1768C29.2143 37.208 29.2313 37.2392 29.2484 37.2704C29.2824 37.208 29.3335 37.1846 29.4017 37.2002C29.4698 37.2002 29.538 37.1924 29.6061 37.1768C29.5891 36.9584 29.6572 36.8258 29.8105 36.779C29.9809 36.7166 30.1683 36.6854 30.3727 36.6854C30.3727 36.6386 30.3897 36.5996 30.4238 36.5684C30.4238 36.6308 30.4323 36.6698 30.4493 36.6854C30.4834 36.5138 30.5601 36.428 30.6793 36.428C30.7986 36.4124 30.9008 36.35 30.9859 36.2408C31.0541 36.1472 31.0796 36.0848 31.0626 36.0536C31.0456 36.0224 31.0967 35.9756 31.2159 35.9132C31.3011 35.882 31.3692 35.8742 31.4203 35.8898C31.4885 35.8898 31.5566 35.882 31.6248 35.8664C31.6588 35.7884 31.6759 35.7182 31.6759 35.6558C31.6929 35.5778 31.7099 35.5076 31.727 35.4452C31.8121 35.5076 31.9144 35.5388 32.0336 35.5388V35.2112H32.0847C32.1699 35.2112 32.2295 35.2034 32.2636 35.1878C32.3147 35.1566 32.3743 35.1488 32.4425 35.1644C32.4425 35.0552 32.4765 34.946 32.5447 34.8368C32.6128 34.712 32.6809 34.6028 32.7491 34.5092H32.8002V34.6262C32.8513 34.5794 32.8854 34.5482 32.9024 34.5326C32.9365 34.5014 32.9876 34.478 33.0557 34.4624C33.0728 34.3844 33.1068 34.322 33.1579 34.2752C33.209 34.2128 33.2431 34.1504 33.2601 34.088C33.3112 33.9476 33.3283 33.8072 33.3112 33.6668C33.2942 33.5108 33.2942 33.3548 33.3112 33.1988C33.1409 33.1676 32.962 33.0896 32.7746 32.9648C32.6043 32.8244 32.468 32.7464 32.3658 32.7308C32.3317 32.7308 32.2977 32.7464 32.2636 32.7776C32.2465 32.7932 32.204 32.801 32.1358 32.801C32.0847 32.7854 31.9655 32.762 31.7781 32.7308C31.5907 32.6996 31.4033 32.6684 31.2159 32.6372C31.0456 32.5904 30.9434 32.5592 30.9093 32.5436C30.8582 32.5124 30.8411 32.4968 30.8582 32.4968C30.8752 32.4812 30.8411 32.4656 30.756 32.45C30.7219 32.528 30.526 32.567 30.1683 32.567C29.9298 32.567 29.6657 32.5514 29.3761 32.5202C29.1036 32.489 28.9162 32.4656 28.814 32.45V32.6138C28.0303 32.5826 27.2808 32.7308 26.5653 33.0584C25.8669 33.386 25.1769 33.7136 24.4955 34.0412C24.5126 34.1192 24.4189 34.2518 24.2144 34.439C24.01 34.6106 23.763 34.8134 23.4734 35.0474C23.2009 35.2658 22.9453 35.4842 22.7068 35.7026C22.4683 35.9054 22.3321 36.0692 22.298 36.194L22.3746 36.2408C22.4258 36.194 22.4769 36.1628 22.528 36.1472C22.528 36.2096 22.5194 36.2408 22.5024 36.2408C22.4854 36.2252 22.5109 36.2408 22.5791 36.2876C22.6813 36.2876 22.7835 36.2798 22.8857 36.2642C23.005 36.2486 23.1157 36.2408 23.2179 36.2408C23.2009 36.194 23.2009 36.1472 23.2179 36.1004C23.252 36.1316 23.2945 36.155 23.3457 36.1706C23.3968 36.1862 23.4393 36.2096 23.4734 36.2408C23.4905 36.1628 23.5075 36.1082 23.5245 36.077C23.5416 36.0458 23.5927 36.0224 23.6778 36.0068L23.7545 35.96C23.7886 36.0536 23.8737 36.1004 24.01 36.1004C24.0782 36.0536 24.1548 36.0302 24.24 36.0302C24.3422 36.0146 24.4274 35.9912 24.4955 35.96C24.4785 35.9132 24.47 35.8742 24.47 35.843C24.487 35.7962 24.4955 35.7572 24.4955 35.726C24.5807 35.7416 24.6488 35.7572 24.7 35.7728C24.7511 35.7728 24.7851 35.7728 24.8022 35.7728C24.8533 35.7728 24.9384 35.7104 25.0577 35.5856C25.0918 35.6012 25.1344 35.609 25.1855 35.609C25.2366 35.609 25.2791 35.6168 25.3132 35.6324C25.3303 35.5544 25.3388 35.5154 25.3388 35.5154C25.3558 35.4998 25.3814 35.4608 25.4154 35.3984L25.7476 35.492C25.7476 35.3828 25.7732 35.3048 25.8243 35.258C25.8754 35.3048 25.9095 35.3282 25.9265 35.3282C25.9435 35.3282 25.9776 35.336 26.0287 35.3516L25.9776 35.1644C26.0117 35.1644 26.0883 35.1566 26.2076 35.141C26.3438 35.1098 26.4205 35.0864 26.4375 35.0708V34.9304L26.4886 34.9772C26.5398 34.9928 26.5909 35.0006 26.642 35.0006C26.6931 35.0006 26.7442 35.0084 26.7953 35.024C26.9486 34.9772 27.0934 34.8992 27.2297 34.79C27.366 34.6652 27.4597 34.5248 27.5108 34.3688C27.5789 34.4156 27.647 34.4468 27.7152 34.4624V34.3688C27.7322 34.3376 27.7322 34.3142 27.7152 34.2986C27.7152 34.283 27.7152 34.2596 27.7152 34.2284C27.8515 34.1816 27.9366 34.1426 27.9707 34.1114C28.0218 34.0802 28.09 34.0646 28.1751 34.0646C28.2433 34.0646 28.3114 34.0724 28.3796 34.088C28.4136 33.9944 28.4562 33.9476 28.5073 33.9476C28.5755 33.9476 28.6351 33.9242 28.6862 33.8774C28.7203 33.8306 28.7288 33.7916 28.7117 33.7604C28.7117 33.7136 28.7203 33.6668 28.7373 33.62C28.7884 33.6512 28.814 33.659 28.814 33.6434C28.831 33.6122 28.8565 33.6044 28.8906 33.62C28.9076 33.6824 28.9162 33.7682 28.9162 33.8774C28.814 33.9398 28.7203 34.0256 28.6351 34.1348C28.5499 34.244 28.4477 34.322 28.3285 34.3688C28.2944 34.3844 28.2262 34.3922 28.124 34.3922C28.0389 34.3922 27.9707 34.4 27.9196 34.4156C27.9196 34.556 27.9026 34.6496 27.8685 34.6964C27.4426 34.8836 27.0508 35.1176 26.6931 35.3984C26.3353 35.6792 25.9606 35.9288 25.5687 36.1472C25.5347 36.1628 25.4495 36.2018 25.3132 36.2642C25.194 36.311 25.1088 36.3188 25.0577 36.2876C25.0066 36.3344 24.964 36.389 24.9299 36.4514C24.8959 36.4982 24.8362 36.5372 24.7511 36.5684L24.5722 36.5216V36.662C24.4018 36.8024 24.0867 36.935 23.6267 37.0598C23.1668 37.1846 22.775 37.247 22.4513 37.247C22.315 37.247 22.2213 37.2392 22.1702 37.2236C22.1532 37.286 22.1447 37.3094 22.1447 37.2938C22.1617 37.2782 22.1362 37.286 22.068 37.3172C21.9999 37.2548 21.9317 37.2002 21.8636 37.1534C21.7955 37.1066 21.7273 37.052 21.6592 36.9896C21.6592 36.9896 21.6932 36.974 21.7614 36.9428C21.6592 36.8804 21.6081 36.7868 21.6081 36.662C21.6251 36.6152 21.6336 36.5684 21.6336 36.5216C21.6507 36.4748 21.6592 36.428 21.6592 36.3812C21.6081 36.3812 21.5825 36.389 21.5825 36.4046C21.5825 36.4046 21.5484 36.3968 21.4803 36.3812C21.4633 36.1784 21.4633 35.9912 21.4803 35.8196C21.5144 35.6324 21.5399 35.4452 21.557 35.258H21.7103V35.2112C21.7103 35.102 21.7273 34.9928 21.7614 34.8836C21.8125 34.7588 21.8721 34.673 21.9403 34.6262C22.0084 34.6574 22.051 34.673 22.068 34.673C22.1702 34.673 22.2298 34.6028 22.2469 34.4624C22.281 34.3064 22.298 34.1972 22.298 34.1348H22.3746C22.4087 34.1504 22.4428 34.166 22.4769 34.1816C22.5109 34.1816 22.545 34.1894 22.5791 34.205C22.5961 34.0334 22.6302 33.9164 22.6813 33.854C22.7494 33.7916 22.8602 33.7448 23.0135 33.7136C23.0135 33.6668 23.005 33.6356 22.9879 33.62C22.9879 33.6044 22.9964 33.581 23.0135 33.5498C23.1497 33.6278 23.286 33.5732 23.4223 33.386C23.5756 33.1832 23.6864 33.0428 23.7545 32.9648C23.8056 32.996 23.8482 33.0116 23.8823 33.0116C23.9163 33.0116 23.9419 32.9804 23.9589 32.918C23.976 32.8556 24.0526 32.7932 24.1889 32.7308C24.1889 32.7932 24.2059 32.84 24.24 32.8712C24.2741 32.7932 24.3422 32.7152 24.4444 32.6372C24.5466 32.5436 24.6318 32.4812 24.7 32.45C24.734 32.5124 24.7766 32.5436 24.8277 32.5436C24.8788 32.5436 24.9384 32.5436 25.0066 32.5436V32.2862H25.1088C25.1599 32.3486 25.1855 32.3642 25.1855 32.333C25.2025 32.3018 25.2451 32.294 25.3132 32.3096L25.2877 32.1926C25.3388 32.177 25.4154 32.138 25.5176 32.0756C25.6199 32.0132 25.705 31.9742 25.7732 31.9586C25.8583 31.9274 25.8924 31.9352 25.8754 31.982C25.8583 32.0132 25.8754 32.0132 25.9265 31.982C26.0968 31.9352 26.2161 31.8884 26.2842 31.8416C26.3524 31.7948 26.4546 31.7714 26.5909 31.7714C26.6249 31.7714 26.659 31.7714 26.6931 31.7714C26.7442 31.7714 26.7953 31.7792 26.8464 31.7948C26.8464 31.7636 26.8464 31.7324 26.8464 31.7012C26.8634 31.6544 26.8805 31.6076 26.8975 31.5608C27.0338 31.5608 27.1445 31.5842 27.2297 31.631C27.3319 31.6622 27.4426 31.6934 27.5619 31.7246V31.631C27.5789 31.5998 27.5789 31.5686 27.5619 31.5374C27.5619 31.4906 27.5619 31.4594 27.5619 31.4438H27.613C27.6641 31.4594 27.7152 31.4672 27.7663 31.4672C27.8344 31.4672 27.9026 31.4672 27.9707 31.4672C27.9707 31.436 27.9707 31.4126 27.9707 31.397C27.9877 31.3814 27.9963 31.3658 27.9963 31.3502C28.0303 31.4126 28.09 31.4516 28.1751 31.4672C28.2092 31.3892 28.2348 31.3424 28.2518 31.3268C28.2688 31.3112 28.3285 31.3034 28.4307 31.3034C28.4477 31.2878 28.4903 31.28 28.5584 31.28C28.6606 31.28 28.7628 31.3034 28.8651 31.3502C28.9843 31.397 29.061 31.4048 29.095 31.3736C29.1632 31.358 29.2058 31.3346 29.2228 31.3034C29.2398 31.2566 29.2824 31.2254 29.3506 31.2098C29.3846 31.2722 29.4102 31.3034 29.4272 31.3034C29.4443 31.2878 29.4868 31.2878 29.555 31.3034V31.4438L29.8361 31.4672L29.9127 31.2098H30.3727C30.3727 31.2878 30.3556 31.3268 30.3216 31.3268C30.3045 31.3268 30.3471 31.3424 30.4493 31.3736C30.5175 31.3424 30.5771 31.3346 30.6282 31.3502C30.6963 31.3502 30.756 31.358 30.8071 31.3736V31.2566H31.1648C31.1818 31.2722 31.1989 31.3034 31.2159 31.3502C31.233 31.3814 31.25 31.4126 31.267 31.4438C31.3181 31.3658 31.3437 31.3268 31.3437 31.3268C31.3607 31.3268 31.4033 31.319 31.4714 31.3034C31.5396 31.3346 31.6077 31.3736 31.6759 31.4204C31.744 31.4672 31.8207 31.4828 31.9058 31.4672C31.9229 31.4048 31.9569 31.3736 32.0081 31.3736C32.0421 31.3736 32.0847 31.4126 32.1358 31.4906C32.1869 31.5686 32.2806 31.6076 32.4169 31.6076C32.451 31.6076 32.485 31.6076 32.5191 31.6076C32.5532 31.592 32.5958 31.5764 32.6469 31.5608C32.6469 31.6544 32.6384 31.709 32.6213 31.7246C32.6043 31.7246 32.6469 31.7402 32.7491 31.7714C32.8172 31.709 32.8854 31.6934 32.9535 31.7246C33.0216 31.7558 33.0813 31.787 33.1324 31.8182C33.2005 31.8494 33.2601 31.8962 33.3112 31.9586C33.3453 31.8962 33.3624 31.865 33.3624 31.865C33.3624 31.9118 33.3794 31.9508 33.4135 31.982L33.4646 31.9586C33.6349 31.9898 33.7712 32.0522 33.8734 32.1458C33.9927 32.2394 34.1119 32.3252 34.2311 32.4032C34.2141 32.4656 34.2056 32.5124 34.2056 32.5436C34.2056 32.5748 34.2141 32.6294 34.2311 32.7074C34.5037 32.7854 34.6741 32.9102 34.7422 33.0818C34.8274 33.2378 34.8785 33.4328 34.8955 33.6668C34.8274 33.6824 34.7933 33.698 34.7933 33.7136C34.7933 33.7292 34.7763 33.7604 34.7422 33.8072C34.7763 33.8228 34.8018 33.8306 34.8189 33.8306C34.8529 33.8306 34.8785 33.8462 34.8955 33.8774C34.8274 33.9554 34.8018 34.1036 34.8189 34.322C34.8529 34.5248 34.8274 34.6964 34.7422 34.8368C34.5037 35.3048 34.1715 35.7494 33.7456 36.1706C33.3368 36.5762 32.9024 36.9272 32.4425 37.2236C32.3232 37.3016 32.1017 37.4186 31.7781 37.5746C31.4714 37.7306 31.1733 37.8944 30.8837 38.066C30.6112 38.222 30.4664 38.3702 30.4493 38.5106C30.5345 38.495 30.5941 38.4872 30.6282 38.4872C30.6793 38.4716 30.7219 38.4638 30.756 38.4638C30.8071 38.4638 30.9178 38.5028 31.0882 38.5808V38.6978C31.1733 38.729 31.267 38.729 31.3692 38.6978C31.4033 38.7914 31.497 38.8772 31.6503 38.9552C31.8207 39.0332 31.991 39.1268 32.1614 39.236C32.3488 39.3296 32.4765 39.4466 32.5447 39.587C32.5787 39.5558 32.5958 39.5324 32.5958 39.5168C32.5958 39.5012 32.6128 39.509 32.6469 39.5402C32.715 39.6026 32.7576 39.6416 32.7746 39.6572C32.7917 39.6572 32.8002 39.7196 32.8002 39.8444C32.8854 39.8444 32.928 39.8522 32.928 39.8678C32.945 39.8678 32.9705 39.899 33.0046 39.9614L33.1068 39.9146C33.1409 39.9146 33.1579 39.938 33.1579 39.9848C33.1579 40.0316 33.192 40.094 33.2601 40.172L33.3112 40.1018C33.3453 40.1486 33.3453 40.2266 33.3112 40.3358C33.3794 40.3826 33.4305 40.4216 33.4646 40.4528C33.4986 40.4684 33.5327 40.5152 33.5668 40.5932L33.7201 40.4762C33.7542 40.5854 33.8393 40.718 33.9756 40.874C34.1119 41.0144 34.2141 41.147 34.2823 41.2718C34.3674 41.4278 34.4185 41.5994 34.4356 41.7866C34.4696 41.9738 34.5207 42.1454 34.5889 42.3014C34.623 42.395 34.64 42.4886 34.64 42.5822C34.64 42.785 34.6059 43.019 34.5378 43.2842C34.4696 43.5494 34.4015 43.7288 34.3334 43.8224C34.3504 44.0096 34.3419 44.15 34.3078 44.2436C34.2737 44.3372 34.2141 44.4698 34.1289 44.6414C34.0949 44.7194 34.0438 44.774 33.9756 44.8052C33.9075 44.8364 33.8393 44.891 33.7712 44.969C33.7031 45.3122 33.5072 45.6476 33.1835 45.9752C32.8769 46.3028 32.5447 46.5368 32.1869 46.6772C32.1869 46.724 32.1869 46.763 32.1869 46.7942C32.204 46.8098 32.204 46.841 32.1869 46.8878C32.0336 46.9658 31.8718 47.0594 31.7014 47.1686C31.5481 47.2778 31.4033 47.3948 31.267 47.5196C31.25 47.4728 31.2415 47.4494 31.2415 47.4494C31.2585 47.4494 31.233 47.4416 31.1648 47.426C31.1648 47.5664 31.0626 47.699 30.8582 47.8238C30.6708 47.933 30.4664 48.0266 30.2449 48.1046C30.0235 48.1826 29.8531 48.2528 29.7339 48.3152C29.5124 48.4244 29.2313 48.5648 28.8906 48.7364C28.5669 48.908 28.2603 48.9938 27.9707 48.9938C27.8855 48.9938 27.8174 48.986 27.7663 48.9704C27.7322 48.986 27.7067 49.0094 27.6896 49.0406C27.6726 49.0874 27.647 49.1264 27.613 49.1576L27.3063 49.1108L27.2041 49.2512C27.136 49.2668 27.0678 49.2668 26.9997 49.2512C26.9486 49.2512 26.8805 49.2512 26.7953 49.2512C26.7612 49.2512 26.7101 49.2668 26.642 49.298C26.5738 49.3448 26.5227 49.376 26.4886 49.3916C26.4205 49.4072 26.3183 49.415 26.182 49.415C26.0628 49.4306 25.918 49.4384 25.7476 49.4384Z" fill="#29235C"/>
<path d="M34.5987 48.2684L34.5476 48.362L34.4709 48.2918C34.1472 48.2918 33.8747 48.1904 33.6532 47.9876L33.6021 48.0578C33.4147 47.9018 33.2359 47.699 33.0655 47.4494L33.1677 47.3792L33.1166 47.2622L33.0399 47.2856L32.8355 46.958L32.8866 46.8176C32.7674 46.6616 32.6992 46.5056 32.6822 46.3496H32.7078L32.7844 46.4432L32.8355 46.3028L32.7333 46.1858C32.7163 46.1078 32.6822 45.944 32.6311 45.6944C32.58 45.4292 32.5544 45.2108 32.5544 45.0392C32.5544 44.8988 32.5715 44.813 32.6056 44.7818L32.5289 44.5478H32.7078C32.7078 44.5322 32.6992 44.4542 32.6822 44.3138C32.6652 44.1734 32.6481 44.033 32.6311 43.8926C32.6311 43.7366 32.6311 43.6274 32.6311 43.565L32.7844 43.6118V43.5416L32.6567 43.4012L32.7078 43.1672L32.7844 43.1906V43.0736L32.7078 42.9332H32.8355C32.8185 42.8552 32.8015 42.7772 32.7844 42.6992C32.7844 42.6212 32.7844 42.551 32.7844 42.4886L32.8866 42.4184L32.7844 42.3482L32.9122 41.7866L32.8611 41.7632C32.9292 41.6852 32.9633 41.6072 32.9633 41.5292C32.9803 41.4356 32.9974 41.3498 33.0144 41.2718L33.1166 41.2484L33.0911 41.0144H33.1677L33.2444 40.8038C33.1933 40.835 33.1677 40.8194 33.1677 40.757C33.1677 40.679 33.1507 40.6478 33.1166 40.6634C33.1847 40.5542 33.2273 40.4372 33.2444 40.3124C33.2784 40.1876 33.3381 40.0706 33.4232 39.9614L33.3466 39.821L33.4488 39.5402L33.5766 39.5636L33.6532 39.4934H33.4488L33.4743 39.3998L33.7299 39.353V39.236L33.5255 39.2126C33.5425 39.1814 33.5595 39.1502 33.5766 39.119C33.5936 39.0722 33.5936 39.041 33.5766 39.0254L33.6788 38.9084L33.6532 38.8148L33.8321 38.5574L34.2154 38.651L34.1643 38.4872H34.1898C34.3431 38.5964 34.4965 38.6822 34.6498 38.7446C34.8031 38.807 34.8883 38.9396 34.9053 39.1424H35.0842C35.1182 39.314 35.229 39.4154 35.4164 39.4466C35.6037 39.4622 35.7485 39.5324 35.8508 39.6572L35.9785 39.5636L36.2596 39.7274L36.2085 39.8444C36.43 39.8288 36.6429 39.8522 36.8473 39.9146C37.0688 39.977 37.188 40.1408 37.2051 40.406L37.3584 40.289C37.5458 40.4138 37.6395 40.601 37.6395 40.8506L37.5372 40.874L37.5883 41.1314C37.435 41.1938 37.3669 41.303 37.3839 41.459C37.418 41.615 37.3839 41.732 37.2817 41.81H37.2051C37.1539 42.0128 37.0177 42.1688 36.7962 42.278C36.5918 42.3716 36.4214 42.5042 36.2852 42.6758L36.234 42.5588H36.2085L36.1829 42.746L35.9274 42.9098V42.98L35.7485 43.0502L35.7741 43.0736H35.6208C35.5526 43.136 35.4675 43.1984 35.3653 43.2608C35.263 43.3076 35.1693 43.3466 35.0842 43.3778L35.1097 43.3076C35.0416 43.3544 34.9734 43.4168 34.9053 43.4948C34.8542 43.5572 34.7861 43.604 34.7009 43.6352L34.6753 43.565L34.4965 43.6586L34.5731 43.7054L34.1387 43.7522L34.1132 43.7756L34.1387 44.0096L33.9343 44.033C34.0535 44.0486 34.1132 44.189 34.1132 44.4542C34.1132 44.6102 34.0876 44.774 34.0365 44.9456C34.0024 45.1016 33.9684 45.203 33.9343 45.2498H34.0876V45.3668L34.0365 45.3434C34.0365 45.5306 34.0621 45.7178 34.1132 45.905C34.1813 46.0766 34.2324 46.256 34.2665 46.4432L34.2154 46.4198C34.2154 46.4822 34.2494 46.5758 34.3176 46.7006C34.3857 46.8098 34.4539 46.88 34.522 46.9112L34.4709 47.1218H34.4965L34.5731 47.0282L34.8286 47.192V47.3324C35.016 47.3324 35.1949 47.3324 35.3653 47.3324C35.5526 47.3168 35.7315 47.2934 35.9019 47.2622L35.8508 47.0984L36.1063 46.9814L36.1318 47.1218L36.2085 46.8644H36.2596V47.0048H36.2852V46.8176H36.3107L36.3363 46.958L36.5407 46.7708L36.464 46.724L36.9495 46.2092H37.0517L37.2306 45.905L37.3328 45.9284L37.2306 45.8582C37.2647 45.7802 37.3158 45.71 37.3839 45.6476C37.4521 45.5696 37.5117 45.4994 37.5628 45.437L37.6395 45.4604L37.7161 45.2498L37.7928 45.2966C37.7928 45.2186 37.8098 45.1406 37.8439 45.0626C37.895 44.969 37.9291 44.891 37.9461 44.8286L38.0483 44.852C38.0483 44.5712 38.1931 44.3528 38.4827 44.1968L38.3549 44.1032L38.4827 43.9862L38.7382 43.9394V44.3138H38.636L38.6871 44.4542L38.5338 44.5244L38.636 44.618L38.5594 44.8286H38.5338C38.4657 44.8286 38.4316 44.852 38.4316 44.8988C38.4316 44.9456 38.4231 45.0002 38.406 45.0626L38.3038 44.9222V45.0158C38.3038 45.125 38.2783 45.242 38.2272 45.3668L37.9972 45.2966C38.0313 45.3278 38.0483 45.3746 38.0483 45.437C38.0483 45.5306 38.0057 45.6164 37.9205 45.6944L38.0227 45.7646C37.9716 45.827 37.9461 45.8426 37.9461 45.8114C37.9461 45.7646 37.9461 45.7334 37.9461 45.7178L37.895 45.7646L37.9205 45.8816H37.7928L37.6395 46.022L37.7417 46.1624L37.6395 46.139C37.6054 46.2326 37.5117 46.3886 37.3584 46.607C37.2221 46.8254 37.0943 46.9424 36.9751 46.958C36.9751 47.0984 36.9325 47.2232 36.8473 47.3324C36.7621 47.426 36.6514 47.5118 36.5151 47.5898V47.4026L36.3107 47.5664C36.3107 47.6288 36.3363 47.6444 36.3874 47.6132C36.4385 47.582 36.4725 47.543 36.4896 47.4962L36.5151 47.66C36.4129 47.6756 36.3277 47.7146 36.2596 47.777C36.1915 47.8394 36.1063 47.8706 36.0041 47.8706C35.953 48.0734 35.8082 48.1982 35.5697 48.245C35.3482 48.2918 35.1438 48.3074 34.9564 48.2918L34.9309 48.3386L34.7775 48.362V48.2918L34.5987 48.2684ZM34.2409 42.9566C34.2409 43.0658 34.2494 43.136 34.2665 43.1672L34.7009 43.0736C34.7009 42.9956 34.7179 42.941 34.752 42.9098C34.7861 42.9098 34.8116 42.8864 34.8286 42.8396L34.9564 42.9332C34.9905 42.8084 35.0586 42.7382 35.1608 42.7226L35.0842 42.6758C35.1693 42.6134 35.2545 42.551 35.3397 42.4886C35.4419 42.4262 35.5271 42.3638 35.5952 42.3014L35.6463 42.3248L35.6719 42.395C35.706 42.3638 35.723 42.3482 35.723 42.3482C35.74 42.3326 35.7571 42.317 35.7741 42.3014C35.74 42.239 35.723 42.2 35.723 42.1844C35.8252 42.1376 35.8933 42.0596 35.9274 41.9504L36.0552 41.9738L36.0041 41.8568C36.0381 41.8568 36.0722 41.849 36.1063 41.8334C36.1404 41.8178 36.1659 41.8022 36.1829 41.7866L36.1063 41.7398C36.1574 41.7398 36.2085 41.7164 36.2596 41.6696C36.2426 41.6384 36.234 41.5838 36.234 41.5058L36.2596 41.4824C36.2937 41.4824 36.3192 41.4902 36.3363 41.5058C36.3703 41.5058 36.4044 41.5058 36.4385 41.5058C36.3703 41.4434 36.3363 41.3732 36.3363 41.2952C36.4385 41.2952 36.4981 41.2874 36.5151 41.2718C36.4981 41.1626 36.4896 41.0768 36.4896 41.0144C36.5066 40.9364 36.5151 40.8428 36.5151 40.7336C36.447 40.7024 36.4129 40.6634 36.4129 40.6166C36.4129 40.5542 36.3874 40.4996 36.3363 40.4528L36.2852 40.4996L36.1574 40.4294L36.1829 40.3358C36.1148 40.3202 36.0467 40.2968 35.9785 40.2656C35.9104 40.2188 35.8422 40.1954 35.7741 40.1954V40.1018C35.6889 40.1018 35.6123 40.0862 35.5441 40.055C35.493 40.0238 35.4334 40.0082 35.3653 40.0082C35.3653 39.8678 35.2886 39.8132 35.1353 39.8444C35.1353 39.9224 35.1012 39.9848 35.0331 40.0316C34.982 40.0784 34.9649 40.1642 34.982 40.289C34.9479 40.289 34.9223 40.2968 34.9053 40.3124C34.8883 40.328 34.8627 40.3436 34.8286 40.3592C34.8627 40.406 34.8542 40.5308 34.8031 40.7336C34.752 40.9364 34.6838 41.1392 34.5987 41.342C34.5135 41.5292 34.4454 41.6462 34.3942 41.693H34.522C34.505 41.8334 34.4539 42.0362 34.3687 42.3014C34.2835 42.551 34.2409 42.7694 34.2409 42.9566Z" fill="#29235C"/>
<path d="M42.4845 53.1122C42.4675 53.0186 42.4334 52.964 42.3823 52.9484C42.3482 52.9328 42.3142 52.8938 42.2801 52.8314C42.246 52.8002 42.229 52.7612 42.229 52.7144C42.229 52.6208 42.2545 52.5116 42.3056 52.3868C42.3567 52.262 42.3908 52.1684 42.4078 52.106C42.493 52.0748 42.5356 52.0592 42.5356 52.0592C42.5356 52.0748 42.5526 52.0514 42.5867 51.989L42.4078 51.9422C42.459 51.8798 42.4845 51.8174 42.4845 51.755C42.5015 51.7082 42.5101 51.6536 42.5101 51.5912C42.5101 51.3572 42.5697 51.131 42.6889 50.9126C42.8082 50.7098 42.9274 50.4992 43.0467 50.2808C43.0978 50.156 43.1148 50.0234 43.0978 49.883C43.0978 49.7582 43.1318 49.6412 43.2 49.532L43.3277 49.4384C43.3618 49.3604 43.4044 49.2044 43.4555 48.9704C43.5066 48.7364 43.5577 48.596 43.6088 48.5492L43.7366 48.596V48.5492L43.6599 48.362L43.7877 48.3152L43.711 48.2918L43.8644 48.128L43.7366 48.0578C43.8047 48.011 43.8473 47.9252 43.8644 47.8004C43.8984 47.66 43.941 47.5118 43.9921 47.3558C44.0603 47.1998 44.171 47.0906 44.3243 47.0282V46.9112C44.3243 46.8488 44.3243 46.802 44.3243 46.7708C44.3413 46.724 44.3584 46.6694 44.3754 46.607H44.5287V46.4666C44.5969 46.4666 44.6309 46.4744 44.6309 46.49C44.6309 46.49 44.6395 46.451 44.6565 46.373C44.5713 46.3418 44.5287 46.3106 44.5287 46.2794C44.5287 46.2482 44.5032 46.2014 44.4521 46.139C44.5032 46.1234 44.5458 46.1 44.5798 46.0688C44.6139 46.0376 44.6395 46.0142 44.6565 45.9986C44.5884 45.9518 44.5543 45.866 44.5543 45.7412C44.5543 45.5696 44.5969 45.3746 44.682 45.1562C44.7672 44.9378 44.8268 44.7896 44.8609 44.7116C44.7587 44.6804 44.6991 44.6414 44.682 44.5946C44.665 44.5322 44.6565 44.462 44.6565 44.384C44.7417 44.3372 44.7843 44.2124 44.7843 44.0096C44.7843 43.8068 44.7843 43.6664 44.7843 43.5884H44.7076C44.6906 43.6508 44.648 43.6976 44.5798 43.7288C44.5287 43.76 44.4691 43.7912 44.401 43.8224C44.5032 43.916 44.4691 44.0408 44.2988 44.1968C44.1454 44.3528 44.0262 44.462 43.941 44.5244C43.7536 44.8208 43.5407 45.1016 43.3022 45.3668C43.0807 45.6164 42.8593 45.8738 42.6378 46.139C42.5186 46.2638 42.3823 46.373 42.229 46.4666C42.0757 46.5602 41.9394 46.6694 41.8201 46.7942L41.7435 46.724C41.7264 46.8332 41.6668 46.919 41.5646 46.9814C41.4624 47.0282 41.3687 47.0828 41.2835 47.1452C41.2324 47.0984 41.1643 47.075 41.0791 47.075C41.1472 47.2934 40.9854 47.4572 40.5936 47.5664C40.2188 47.6756 39.81 47.7302 39.3671 47.7302C39.0945 47.7302 38.839 47.7146 38.6005 47.6834C38.362 47.6366 38.1916 47.5742 38.0894 47.4962C38.0213 47.465 38.0042 47.4494 38.0383 47.4494C38.0724 47.4338 38.0468 47.4026 37.9617 47.3558C37.9106 47.3246 37.8424 47.2934 37.7572 47.2622C37.6721 47.2154 37.6124 47.1374 37.5784 47.0282L37.6295 46.8878C37.6124 46.8098 37.5613 46.7552 37.4762 46.724C37.391 46.6772 37.3314 46.6226 37.2973 46.5602C37.2973 46.5446 37.2888 46.451 37.2717 46.2794C37.2717 46.0922 37.2717 45.905 37.2717 45.7178C37.2888 45.515 37.2973 45.4058 37.2973 45.3902C37.3314 45.3122 37.3825 45.242 37.4506 45.1796C37.5187 45.1016 37.5784 45.0236 37.6295 44.9456C37.5613 44.9144 37.5358 44.8988 37.5528 44.8988C37.5698 44.8832 37.5784 44.8442 37.5784 44.7818C37.7146 44.657 37.8169 44.5322 37.885 44.4074C37.9702 44.267 38.0639 44.1344 38.1661 44.0096L38.2938 44.0564V44.0096C38.1916 44.0096 38.1405 44.0018 38.1405 43.9862C38.1576 43.9706 38.1831 43.9628 38.2172 43.9628C38.3024 43.838 38.4301 43.6976 38.6005 43.5416C38.7879 43.3856 38.9667 43.3232 39.1371 43.3544V43.331C39.1201 43.2998 39.1115 43.2686 39.1115 43.2374C39.1286 43.1906 39.1371 43.1594 39.1371 43.1438L39.2649 43.0736L39.3415 42.98L39.4437 43.0736C39.4608 42.9956 39.58 42.8786 39.8015 42.7226C40.04 42.5666 40.2784 42.434 40.5169 42.3248C40.7725 42.2 40.9343 42.1532 41.0024 42.1844L41.0791 42.0674V42.161L41.2069 41.9972C41.258 41.9816 41.3091 41.9816 41.3602 41.9972C41.4113 41.9972 41.4709 41.9972 41.539 41.9972L41.5646 41.8802C41.8201 41.849 42.0671 41.7866 42.3056 41.693C42.5441 41.5994 42.7911 41.5526 43.0467 41.5526C43.1829 41.5526 43.3192 41.576 43.4555 41.6228C43.6088 41.6696 43.7707 41.6774 43.941 41.6462V41.5058H43.9921L44.0688 41.6462L44.2476 41.459L44.3243 41.576C44.3413 41.5448 44.3669 41.5214 44.401 41.5058L44.4521 41.6462C44.5202 41.5682 44.5884 41.5058 44.6565 41.459C44.6906 41.5058 44.7417 41.5292 44.8098 41.5292C44.878 41.5292 44.9461 41.5136 45.0142 41.4824C45.0824 41.4356 45.1335 41.4044 45.1675 41.3888C45.1675 41.264 45.1846 41.1938 45.2187 41.1782C45.2698 41.1626 45.3038 41.1158 45.3209 41.0378V41.0144C45.3209 40.9832 45.2953 40.952 45.2442 40.9208C45.2101 40.874 45.2101 40.8272 45.2442 40.7804L45.372 40.6166C45.406 40.5386 45.406 40.4918 45.372 40.4762C45.3549 40.445 45.3209 40.4138 45.2698 40.3826C45.2868 40.3202 45.3038 40.1876 45.3209 39.9848C45.3379 39.7664 45.372 39.5558 45.4231 39.353C45.4742 39.1502 45.5423 39.0254 45.6275 38.9786L45.7042 39.0254C45.7212 38.9942 45.7297 38.9318 45.7297 38.8382C45.6105 38.8382 45.5508 38.8148 45.5508 38.768C45.5679 38.7212 45.5764 38.651 45.5764 38.5574C45.6445 38.5106 45.7042 38.4014 45.7553 38.2298C45.8064 38.0582 45.849 37.8788 45.883 37.6916C45.9171 37.5044 45.9341 37.3796 45.9341 37.3172H46.0875C46.0875 37.2236 46.096 37.0598 46.113 36.8258C46.13 36.5918 46.1556 36.4436 46.1897 36.3812L46.343 36.2876V36.0068H46.4452C46.4963 35.9288 46.5559 35.8274 46.6241 35.7026C46.7092 35.5622 46.7603 35.453 46.7774 35.375C46.7433 35.3282 46.7263 35.2736 46.7263 35.2112C46.7263 35.1332 46.7348 35.0708 46.7518 35.024H46.9562L46.9818 34.79H47.1096C47.1436 34.8368 47.1947 34.868 47.2629 34.8836C47.3481 34.8836 47.4077 34.8914 47.4417 34.907C47.5099 35.0006 47.5865 35.0942 47.6717 35.1878C47.7569 35.2814 47.808 35.3672 47.825 35.4452C47.8421 35.5076 47.8421 35.5622 47.825 35.609C47.808 35.6402 47.808 35.687 47.825 35.7494L47.8761 35.6324V36.3578C47.7058 36.5138 47.578 36.7088 47.4929 36.9428C47.4247 37.1768 47.3736 37.3952 47.3395 37.598C47.3225 37.7852 47.2884 37.9022 47.2373 37.949C47.1521 38.0894 47.0499 38.3546 46.9307 38.7446C46.8285 39.119 46.7263 39.5324 46.6241 39.9848C46.5218 40.4372 46.4367 40.8584 46.3685 41.2484C46.3174 41.6384 46.2919 41.927 46.2919 42.1142H46.113V42.3014C46.1982 42.317 46.2408 42.3794 46.2408 42.4886C46.2408 42.5822 46.2408 42.6602 46.2408 42.7226C46.2748 42.7226 46.3259 42.6992 46.3941 42.6524C46.4111 42.59 46.4111 42.551 46.3941 42.5354C46.3941 42.5198 46.4282 42.5042 46.4963 42.4886L46.5474 42.5354V42.4184C46.6155 42.3872 46.6496 42.3404 46.6496 42.278C46.6666 42.2156 46.6837 42.161 46.7007 42.1142C46.7348 42.0986 46.7774 42.083 46.8285 42.0674C46.8966 42.0518 46.9392 42.0284 46.9562 41.9972C47.0244 41.9348 47.067 41.8568 47.084 41.7632C47.101 41.6696 47.1436 41.5838 47.2118 41.5058C47.314 41.381 47.4077 41.3108 47.4929 41.2952C47.5951 41.2796 47.7058 41.147 47.825 40.8974H47.8761C47.9272 40.8974 47.9698 40.8974 48.0039 40.8974C48.055 40.8974 48.1061 40.913 48.1572 40.9442C48.1743 40.7258 48.285 40.601 48.4894 40.5698V40.4294L48.5661 40.3592C48.6853 40.406 48.796 40.3904 48.8983 40.3124C49.0175 40.2344 49.1453 40.1564 49.2815 40.0784C49.4178 39.9848 49.5711 39.938 49.7415 39.938C49.8267 39.938 49.8778 39.9302 49.8948 39.9146C49.9119 39.8834 49.9289 39.86 49.9459 39.8444C49.9459 39.8444 49.9459 39.8522 49.9459 39.8678C49.963 39.8834 49.98 39.9068 49.997 39.938L50.0226 39.9614C50.1759 39.899 50.3548 39.8678 50.5592 39.8678C50.7466 39.8678 50.9169 39.899 51.0702 39.9614C51.2406 40.0238 51.4195 40.094 51.6069 40.172C51.6069 40.2188 51.5898 40.2422 51.5557 40.2422C51.5387 40.2422 51.5557 40.2578 51.6069 40.289L51.658 40.3826C51.658 40.3826 51.675 40.3748 51.7091 40.3592C51.7431 40.328 51.7687 40.328 51.7857 40.3592C51.9731 40.4684 52.0838 40.6166 52.1179 40.8038C52.169 40.991 52.1946 41.186 52.1946 41.3888C52.1946 41.5448 52.1861 41.7086 52.169 41.8802C52.169 42.0362 52.1775 42.1922 52.1946 42.3482C52.1264 42.3326 52.0838 42.3248 52.0668 42.3248C52.0668 42.3092 52.0498 42.3248 52.0157 42.3716C52.1009 42.434 52.1094 42.59 52.0413 42.8396C51.9731 43.0736 51.8879 43.3154 51.7857 43.565C51.6835 43.799 51.6239 43.9628 51.6069 44.0564L51.5302 44.0096V44.0564C51.4621 44.15 51.428 44.2592 51.428 44.384C51.445 44.4932 51.4109 44.5868 51.3258 44.6648H51.1469C51.1469 44.8208 51.0702 45.0158 50.9169 45.2498C50.7636 45.4682 50.6444 45.6554 50.5592 45.8114H50.4059V46.0454C50.2866 46.1078 50.1078 46.2794 49.8693 46.5602C49.6478 46.8254 49.4945 47.0204 49.4093 47.1452L49.2304 47.075C49.2134 47.2778 49.1453 47.4104 49.026 47.4728C48.9238 47.5352 48.8216 47.5664 48.7194 47.5664C48.6172 47.5508 48.549 47.5586 48.515 47.5898C48.4979 47.6054 48.4979 47.6366 48.515 47.6834C48.532 47.7302 48.5235 47.777 48.4894 47.8238C48.4383 47.8706 48.3616 47.9018 48.2594 47.9174C48.1743 47.933 48.1146 47.9642 48.0806 48.011C48.0124 47.9642 47.9613 47.9408 47.9272 47.9408C47.8932 47.9408 47.8676 47.9642 47.8506 48.011C47.8336 48.0422 47.7825 48.0734 47.6973 48.1046C47.6973 48.1046 47.6888 48.0968 47.6717 48.0812C47.6717 48.05 47.6632 48.0422 47.6462 48.0578C47.5269 48.1358 47.3821 48.1748 47.2118 48.1748C47.1436 48.1748 47.067 48.1748 46.9818 48.1748C46.9137 48.1592 46.837 48.1436 46.7518 48.128V47.9174C46.6496 47.8862 46.5559 47.855 46.4707 47.8238C46.3856 47.777 46.2919 47.7458 46.1897 47.7302C46.1215 47.5898 46.0789 47.4416 46.0619 47.2856C46.0619 47.1296 45.9512 47.0438 45.7297 47.0282C45.7297 46.9346 45.7212 46.8644 45.7042 46.8176C45.7042 46.7708 45.6616 46.7162 45.5764 46.6538C45.5764 46.9502 45.5423 47.2544 45.4742 47.5664C45.406 47.8628 45.372 48.167 45.372 48.479C45.3379 48.479 45.3209 48.479 45.3209 48.479C45.3209 48.4634 45.3038 48.479 45.2698 48.5258C45.3038 48.5882 45.3209 48.6584 45.3209 48.7364C45.3209 48.8456 45.3038 48.9626 45.2698 49.0874C45.2187 49.0874 45.1931 49.0796 45.1931 49.064C45.2101 49.0484 45.2016 49.0718 45.1675 49.1342C45.2357 49.2122 45.2357 49.3604 45.1675 49.5788C45.1164 49.7972 45.0568 50.0234 44.9887 50.2574C44.9205 50.4914 44.878 50.6708 44.8609 50.7956L44.7843 50.7488V50.7956C44.8013 50.8268 44.8098 50.8658 44.8098 50.9126C44.8098 51.0218 44.7672 51.1388 44.682 51.2636C44.6139 51.3884 44.5628 51.4898 44.5287 51.5678C44.3584 51.9734 44.2051 52.2776 44.0688 52.4804C43.9495 52.6832 43.7707 52.8236 43.5322 52.9016C43.3107 52.9952 42.9615 53.0654 42.4845 53.1122ZM47.1096 47.4962C47.1607 47.4494 47.2033 47.426 47.2373 47.426C47.2714 47.426 47.3055 47.426 47.3395 47.426C47.3906 47.426 47.4417 47.4182 47.4929 47.4026C47.6121 47.3402 47.7058 47.27 47.7739 47.192C47.8421 47.114 47.9443 47.1218 48.0806 47.2154C48.0976 47.1374 48.1061 47.0906 48.1061 47.075C48.1232 47.0594 48.1657 47.0438 48.2339 47.0282C48.1657 46.9814 48.1232 46.9346 48.1061 46.8878C48.2594 46.7942 48.4639 46.5914 48.7194 46.2794C48.9749 45.9674 49.2049 45.6398 49.4093 45.2966C49.6308 44.9534 49.7415 44.7038 49.7415 44.5478H49.8948C49.9289 44.501 49.9715 44.462 50.0226 44.4308V44.384C50.0055 44.384 49.98 44.3762 49.9459 44.3606C49.9119 44.345 49.8693 44.3372 49.8182 44.3372L49.8948 44.1968C50.0141 44.1344 50.0652 44.0876 50.0481 44.0564C50.0311 44.0096 50.0226 43.9784 50.0226 43.9628C50.0737 43.9316 50.1163 43.9238 50.1503 43.9394C50.1844 43.955 50.2185 43.9628 50.2526 43.9628V43.916C50.1844 43.8848 50.1503 43.838 50.1503 43.7756C50.1503 43.7132 50.1503 43.6508 50.1503 43.5884C50.2015 43.526 50.227 43.4636 50.227 43.4012C50.227 43.3388 50.244 43.2764 50.2781 43.214C50.3122 43.1828 50.3463 43.1594 50.3803 43.1438C50.4314 43.1282 50.4655 43.1048 50.4825 43.0736H50.5592C50.5762 43.058 50.5847 43.019 50.5847 42.9566C50.5847 42.9098 50.5762 42.8552 50.5592 42.7928C50.5422 42.7148 50.5336 42.6446 50.5336 42.5822C50.5336 42.5042 50.5592 42.434 50.6103 42.3716C50.6614 42.356 50.7295 42.2936 50.8147 42.1844L50.9169 42.2312C50.8999 42.1688 50.8829 42.083 50.8658 41.9738C50.8658 41.849 50.8658 41.7164 50.8658 41.576C50.8658 41.3732 50.8573 41.1782 50.8403 40.991C50.8403 40.7882 50.8062 40.6634 50.7381 40.6166L50.687 40.7102C50.687 40.6322 50.6784 40.5698 50.6614 40.523C50.5933 40.5698 50.457 40.5386 50.2526 40.4294C50.0481 40.3046 49.8948 40.2578 49.7926 40.289C49.4349 40.3826 49.0601 40.5542 48.6683 40.8038C48.2935 41.0534 47.9528 41.342 47.6462 41.6696C47.3566 41.9816 47.1521 42.3092 47.0329 42.6524H46.7774C46.7944 42.7148 46.8029 42.7694 46.8029 42.8162C46.82 42.863 46.8285 42.9098 46.8285 42.9566C46.8285 43.1282 46.7689 43.2764 46.6496 43.4012C46.5304 43.4012 46.4707 43.4402 46.4707 43.5182C46.4707 43.5962 46.4622 43.6898 46.4452 43.799C46.4282 43.9082 46.343 44.0096 46.1897 44.1032C46.1726 44.15 46.1556 44.2046 46.1386 44.267C46.1386 44.3138 46.1386 44.3762 46.1386 44.4542C46.1386 44.657 46.1556 44.8754 46.1897 45.1094C46.2408 45.3434 46.2748 45.5384 46.2919 45.6944L46.113 45.7412C46.1982 45.7724 46.2322 45.8114 46.2152 45.8582C46.2152 45.8894 46.2067 45.9362 46.1897 45.9986C46.2237 45.9986 46.2408 45.9986 46.2408 45.9986C46.2578 45.983 46.2919 45.983 46.343 45.9986C46.377 46.2482 46.4367 46.4978 46.5218 46.7474C46.607 46.9814 46.7348 47.1998 46.9051 47.4026C46.9562 47.387 46.9903 47.3948 47.0074 47.426C47.0244 47.4416 47.0585 47.465 47.1096 47.4962ZM38.7027 47.2154C38.839 47.153 38.9497 47.114 39.0349 47.0984C39.1371 47.0828 39.2223 47.075 39.2904 47.075C39.3415 47.075 39.3841 47.0828 39.4182 47.0984C39.4693 47.0984 39.5119 47.0984 39.5459 47.0984C39.6311 47.0984 39.7504 47.0672 39.9037 47.0048C40.057 46.9424 40.2955 46.8098 40.6192 46.607C40.6532 46.6226 40.6788 46.6382 40.6958 46.6538C40.7128 46.6694 40.7299 46.6928 40.7469 46.724C40.798 46.5836 40.9258 46.4432 41.1302 46.3028C41.3346 46.1624 41.4965 46.0766 41.6157 46.0454V46.1858H41.769C41.7861 46.1546 41.8031 46.1312 41.8201 46.1156C41.8372 46.1 41.8542 46.0766 41.8712 46.0454C41.8542 46.0142 41.8372 45.9908 41.8201 45.9752C41.8031 45.9596 41.7861 45.944 41.769 45.9284C41.8372 45.9128 41.9564 45.8192 42.1268 45.6476C42.3142 45.4604 42.4504 45.3512 42.5356 45.32C42.5697 45.3356 42.6038 45.3356 42.6378 45.32C42.6719 45.2888 42.6804 45.2498 42.6634 45.203C42.6634 45.1562 42.6719 45.1172 42.6889 45.086L42.7911 45.1562V45.086L42.74 45.0392C42.8763 44.9612 43.0126 44.8988 43.1489 44.852C43.2511 44.7272 43.3107 44.5868 43.3277 44.4308C43.5322 44.384 43.694 44.2436 43.8132 44.0096C43.9325 43.7756 44.0603 43.6508 44.1965 43.6352L44.2476 43.682C44.2476 43.5572 44.2732 43.4714 44.3243 43.4246C44.3754 43.3778 44.4436 43.3232 44.5287 43.2608L44.401 43.214L44.5287 43.0268H44.7076V42.9566C44.6906 42.9098 44.682 42.8708 44.682 42.8396C44.6991 42.7928 44.7076 42.7538 44.7076 42.7226C44.7928 42.6914 44.8354 42.6836 44.8354 42.6992C44.8354 42.6992 44.8439 42.668 44.8609 42.6056V42.5588C44.8609 42.4652 44.9205 42.3794 45.0398 42.3014C44.9716 42.2546 44.8865 42.2156 44.7843 42.1844C44.682 42.1532 44.5969 42.1532 44.5287 42.1844C44.5117 42.122 44.5032 42.0908 44.5032 42.0908C44.5202 42.0908 44.4861 42.083 44.401 42.0674C44.2988 42.1766 44.1625 42.239 43.9921 42.2546C43.8388 42.2546 43.6855 42.2858 43.5322 42.3482C43.3959 42.3794 43.1829 42.473 42.8933 42.629C42.6208 42.7694 42.4334 42.8396 42.3312 42.8396C42.229 42.8396 42.1779 42.8084 42.1779 42.746C42.1097 42.746 42.0501 42.7694 41.999 42.8162C41.9479 42.8474 41.9053 42.8786 41.8712 42.9098C41.8883 42.941 41.8883 42.98 41.8712 43.0268C41.6498 43.214 41.3687 43.37 41.028 43.4948C40.6873 43.6196 40.4403 43.7912 40.287 44.0096C40.2529 43.9784 40.2103 43.955 40.1592 43.9394C40.1251 43.9238 40.074 43.9472 40.0059 44.0096C40.057 44.0408 40.1081 44.0798 40.1592 44.1266C39.8355 44.2358 39.5885 44.4152 39.4182 44.6648C39.2478 44.8988 39.0093 45.0626 38.7027 45.1562C38.7538 45.1874 38.7964 45.242 38.8305 45.32C38.7623 45.3044 38.6942 45.3044 38.626 45.32C38.609 45.5696 38.5323 45.7724 38.3961 45.9284C38.2598 46.0844 38.1831 46.3106 38.1661 46.607C38.2172 46.6382 38.2513 46.685 38.2683 46.7474C38.2853 46.7942 38.3024 46.841 38.3194 46.8878C38.3705 46.9502 38.4386 47.0048 38.5238 47.0516C38.609 47.0828 38.6686 47.1374 38.7027 47.2154Z" fill="#29235C"/>
<path d="M58.2454 48.6662C58.1432 48.6662 57.9984 48.6194 57.811 48.5258C57.6236 48.4166 57.4533 48.2762 57.2999 48.1046C57.1637 47.933 57.0955 47.7536 57.0955 47.5664C57.0955 47.426 57.1381 47.309 57.2233 47.2154C57.2062 47.1218 57.1722 46.9814 57.1211 46.7942C57.07 46.607 57.0785 46.4744 57.1466 46.3964C57.1807 46.3964 57.2148 46.373 57.2488 46.3262C57.2999 46.2794 57.3085 46.2326 57.2744 46.1858L57.1466 46.0688L57.1977 45.437H57.2744C57.3085 45.3746 57.3255 45.3122 57.3255 45.2498C57.3255 45.1718 57.3085 45.0938 57.2744 45.0158C57.2574 44.9378 57.2318 44.8676 57.1977 44.8052H57.2233V44.6882C57.2233 44.5478 57.2233 44.4152 57.2233 44.2904C57.2403 44.1656 57.2574 44.033 57.2744 43.8926C57.3425 43.9238 57.3596 43.9082 57.3255 43.8458C57.2914 43.7834 57.2744 43.7834 57.2744 43.8458C57.2233 43.6742 57.2403 43.4792 57.3255 43.2608C57.4107 43.0424 57.4533 42.8474 57.4533 42.6758C57.4533 42.5666 57.4277 42.4808 57.3766 42.4184C57.3766 42.4964 57.351 42.5822 57.2999 42.6758C57.2659 42.7694 57.2318 42.8552 57.1977 42.9332V42.8162H57.1466C57.1466 42.9254 57.1211 43.0034 57.07 43.0502L57.2233 43.097C57.0359 43.2842 56.9422 43.5338 56.9422 43.8458H56.7633L56.84 44.0564L56.5334 44.0798L56.84 44.1266C56.7718 44.2046 56.7207 44.2904 56.6867 44.384C56.6696 44.4776 56.6526 44.5634 56.6356 44.6414L56.38 44.6882C56.4311 44.735 56.4567 44.8052 56.4567 44.8988C56.4567 45.0704 56.38 45.2654 56.2267 45.4838C56.0734 45.7022 55.9456 45.8504 55.8434 45.9284C55.9116 45.9596 55.9456 46.0454 55.9456 46.1858L55.8945 46.2326H55.639C55.6731 46.2482 55.6986 46.295 55.7157 46.373C55.7497 46.4354 55.7668 46.4822 55.7668 46.5134C55.6986 46.529 55.6475 46.5602 55.6135 46.607C55.5794 46.6538 55.5283 46.685 55.4601 46.7006C55.5283 46.7006 55.5879 46.7474 55.639 46.841C55.5709 46.9346 55.4772 47.1218 55.3579 47.4026C55.2387 47.6678 55.1109 47.8238 54.9746 47.8706L54.7958 47.66C54.7787 47.7692 54.7021 47.8316 54.5658 47.8472C54.4295 47.8628 54.3103 47.8706 54.208 47.8706C54.0718 47.7146 53.9185 47.6054 53.7481 47.543C53.5948 47.4806 53.467 47.4026 53.3648 47.309C53.2626 47.1998 53.2115 47.0126 53.2115 46.7474C53.2456 46.7162 53.2711 46.6148 53.2881 46.4432C53.3052 46.2716 53.3137 46.0844 53.3137 45.8816C53.3137 45.6476 53.3052 45.4136 53.2881 45.1796C53.2881 44.9456 53.2881 44.7818 53.2881 44.6882H53.3137C53.3989 44.6882 53.4415 44.6258 53.4415 44.501C53.4415 44.423 53.4329 44.3216 53.4159 44.1968C53.3989 44.072 53.3904 43.955 53.3904 43.8458C53.3904 43.721 53.4074 43.6118 53.4415 43.5182C53.4755 43.409 53.5437 43.3232 53.6459 43.2608L53.5437 43.0502L53.6714 42.629L53.5948 42.4652L53.8503 41.3186C53.7822 41.2718 53.7481 41.2328 53.7481 41.2016C53.7481 41.1704 53.7566 41.1392 53.7737 41.108C53.7907 41.0768 53.7992 41.0378 53.7992 40.991L53.9525 40.9208L53.7992 40.8272C53.9014 40.7336 53.9525 40.5308 53.9525 40.2188C53.9525 39.9848 53.9184 39.7508 53.8503 39.5168C53.7992 39.2672 53.714 39.1112 53.5948 39.0488C53.4074 38.9552 53.1859 38.9006 52.9304 38.885C52.6919 38.8538 52.4534 38.8304 52.2149 38.8148C52.2149 38.7524 52.232 38.7134 52.266 38.6978C52.3001 38.6666 52.2831 38.651 52.2149 38.651C52.3171 38.5574 52.4449 38.495 52.5982 38.4638C52.7004 38.3702 52.8452 38.3234 53.0326 38.3234C53.1689 38.3234 53.2967 38.339 53.4159 38.3702C53.5522 38.4014 53.6544 38.4326 53.7225 38.4638C53.7566 38.2766 53.8929 38.183 54.1314 38.183C54.3699 38.183 54.5658 38.183 54.7191 38.183C54.7532 38.2766 54.8298 38.3312 54.9491 38.3468C55.0854 38.3624 55.1961 38.3624 55.2813 38.3468C55.2983 38.5028 55.3324 38.6198 55.3835 38.6978C55.4346 38.7602 55.4601 38.8304 55.4601 38.9084C55.4601 38.9864 55.4005 39.1268 55.2813 39.3296L55.3835 39.3998L55.2813 39.9146L55.1535 39.9614H55.2813C55.2813 40.1174 55.2472 40.2734 55.1791 40.4294C55.128 40.5698 55.1024 40.7024 55.1024 40.8272L55.2046 40.991L55.1535 41.342C55.1365 41.3576 55.1024 41.3576 55.0513 41.342C55.0002 41.3108 54.9746 41.2874 54.9746 41.2718V41.3888L55.1024 41.5526L54.9491 41.5994L55.1024 41.6696L54.7958 42.746L54.9491 42.7928L54.898 43.2608L54.5913 43.214C54.5743 43.2608 54.5743 43.2998 54.5913 43.331C54.6254 43.3622 54.651 43.3778 54.668 43.3778H54.6936C54.7447 43.3778 54.7702 43.4168 54.7702 43.4948C54.7872 43.5572 54.7958 43.6118 54.7958 43.6586C54.7787 43.7054 54.7617 43.7522 54.7447 43.799C54.7447 43.8458 54.7447 43.8926 54.7447 43.9394C54.7447 44.0018 54.7447 44.072 54.7447 44.15C54.7617 44.228 54.7702 44.306 54.7702 44.384C54.7702 44.462 54.7532 44.5478 54.7191 44.6414L54.6424 44.6882L54.668 44.8754C54.5317 44.969 54.4636 45.0938 54.4636 45.2498C54.5488 45.2654 54.5913 45.32 54.5913 45.4136C54.5913 45.476 54.5743 45.5384 54.5402 45.6008C54.5232 45.6632 54.4976 45.7178 54.4636 45.7646C54.5488 45.905 54.5999 46.0532 54.6169 46.2092C54.651 46.3496 54.685 46.5056 54.7191 46.6772C54.7532 46.6772 54.7958 46.6772 54.8469 46.6772C54.915 46.6616 54.9576 46.6304 54.9746 46.5836C55.0087 46.5212 55.0939 46.373 55.2302 46.139C55.3664 45.905 55.5027 45.6788 55.639 45.4604C55.7923 45.242 55.8945 45.1328 55.9456 45.1328L55.8434 44.9924H56.099L55.8434 44.852L56.1501 44.618C56.133 44.54 56.1245 44.4776 56.1245 44.4308C56.1245 44.384 56.1245 44.345 56.1245 44.3138C56.1245 44.1422 56.1586 44.0252 56.2267 43.9628C56.2949 43.9004 56.346 43.7678 56.38 43.565H56.5334C56.6185 43.4714 56.6526 43.3232 56.6356 43.1204C56.6356 42.9176 56.6526 42.707 56.6867 42.4886C56.7207 42.2546 56.8485 42.0752 57.07 41.9504L57.0189 41.5994H57.2233L57.07 41.4824L57.1722 41.4122C57.1551 41.4122 57.1551 41.3966 57.1722 41.3654C57.2062 41.3186 57.2233 41.3108 57.2233 41.342L57.3255 41.225C57.2914 41.2094 57.2914 41.108 57.3255 40.9208C57.3596 40.718 57.4107 40.4918 57.4788 40.2422C57.5469 39.977 57.6066 39.7352 57.6577 39.5168C57.7088 39.2828 57.7429 39.1268 57.7599 39.0488L57.8365 39.002C58.1432 39.0176 58.3391 39.0566 58.4243 39.119C58.5094 39.1658 58.5605 39.2204 58.5776 39.2828C58.6116 39.3296 58.6883 39.3608 58.8076 39.3764C58.8757 39.4388 58.9438 39.5168 59.012 39.6104C59.0801 39.6884 59.1397 39.782 59.1908 39.8912C59.1057 39.9536 59.0631 40.0394 59.0631 40.1486C59.0631 40.211 59.0631 40.2734 59.0631 40.3358C59.0801 40.3826 59.0886 40.4372 59.0886 40.4996C59.0886 40.5776 59.0801 40.64 59.0631 40.6868L58.9353 40.7102C58.9694 40.8038 58.9864 40.874 58.9864 40.9208C58.9864 40.9832 58.9779 41.0456 58.9609 41.108C58.9609 41.1548 58.9524 41.2094 58.9353 41.2718L58.8076 41.3186H58.7564C58.7564 41.3342 58.782 41.3498 58.8331 41.3654C58.9012 41.381 58.9353 41.3888 58.9353 41.3888C58.9012 41.4512 58.8757 41.5136 58.8587 41.576C58.8587 41.6384 58.8587 41.7008 58.8587 41.7632V41.9972C58.8587 42.0596 58.8587 42.122 58.8587 42.1844C58.8587 42.2312 58.8416 42.2858 58.8076 42.3482L58.6542 42.4652C58.6713 42.4964 58.6798 42.5978 58.6798 42.7694C58.6798 42.9722 58.6628 43.2296 58.6287 43.5416C58.6116 43.8536 58.5861 44.1734 58.552 44.501C58.518 44.813 58.4754 45.0938 58.4243 45.3434C58.3902 45.5774 58.3561 45.7178 58.322 45.7646C58.4413 45.9206 58.5009 46.1 58.5009 46.3028C58.5009 46.3652 58.4924 46.4354 58.4754 46.5134C58.4754 46.5914 58.4669 46.6694 58.4498 46.7474C58.6031 46.8254 58.6883 46.9034 58.7053 46.9814C58.7394 47.0438 58.8672 47.075 59.0886 47.075V47.309C59.1738 47.309 59.2164 47.2778 59.2164 47.2154C59.2164 47.1842 59.1908 47.153 59.1397 47.1218C59.1057 47.075 59.0801 47.0282 59.0631 46.9814L59.4975 46.8644C59.5145 46.7708 59.5486 46.6616 59.5997 46.5368C59.6678 46.412 59.7019 46.3106 59.7019 46.2326L59.8808 46.1858L59.9319 45.8348L60.0852 45.9284C60.0682 45.8348 60.0596 45.7412 60.0596 45.6476C60.247 45.5072 60.3833 45.32 60.4685 45.086C60.5537 44.852 60.6899 44.6648 60.8773 44.5244L60.8262 44.3372H61.0051L61.2606 44.0798C61.2266 44.0642 61.1925 44.033 61.1584 43.9862C61.1243 43.9394 61.1158 43.9082 61.1329 43.8926L61.4906 43.8458V43.9394C61.5587 44.0018 61.5247 44.1188 61.3884 44.2904C61.2521 44.462 61.1669 44.5712 61.1329 44.618C61.184 44.6804 61.2095 44.7428 61.2095 44.8052C61.2095 44.8676 61.184 44.9144 61.1329 44.9456C61.0818 44.9768 61.0136 45.0236 60.9284 45.086L61.0051 45.1562C60.9881 45.203 60.9284 45.32 60.8262 45.5072C60.724 45.6944 60.6048 45.905 60.4685 46.139C60.3492 46.373 60.2385 46.5758 60.1363 46.7474C60.0511 46.919 60.0085 47.0126 60.0085 47.0282H59.8041V47.3792C59.8041 47.5196 59.7189 47.6912 59.5486 47.894C59.3782 48.0968 59.1738 48.2762 58.9353 48.4322C58.6968 48.5882 58.4668 48.6662 58.2454 48.6662Z" fill="#29235C"/>
<path d="M62.9962 59.8514C62.8599 59.8826 62.6981 59.867 62.5107 59.8046C62.3404 59.7422 62.1956 59.6798 62.0763 59.6174L61.9741 59.3834L61.8719 59.4302C61.6845 59.321 61.5312 59.1728 61.4119 58.9856C61.3097 58.7984 61.199 58.619 61.0798 58.4474L61.182 58.4006C61.0627 58.3382 60.952 58.151 60.8498 57.839C60.7646 57.5426 60.6965 57.2228 60.6454 56.8796C60.5943 56.552 60.5602 56.318 60.5431 56.1776C60.5602 56.24 60.5857 56.2166 60.6198 56.1074C60.6539 56.0138 60.6113 56.006 60.492 56.084C60.475 55.8656 60.4665 55.6316 60.4665 55.382C60.4665 55.148 60.4409 54.9218 60.3898 54.7034H60.4409C60.5602 54.7034 60.6198 54.6488 60.6198 54.5396C60.6198 54.3836 60.5431 54.329 60.3898 54.3758C60.3728 54.2978 60.3643 54.1964 60.3643 54.0716C60.3643 53.9624 60.3643 53.8454 60.3643 53.7206C60.3643 53.471 60.3813 53.2136 60.4154 52.9484C60.4495 52.6988 60.5091 52.5194 60.5942 52.4102C60.475 52.3634 60.4154 52.2698 60.4154 52.1294C60.4154 52.0358 60.4324 51.9344 60.4665 51.8252C60.5176 51.7316 60.5602 51.6536 60.5942 51.5912L60.492 51.17L60.6454 50.9828C60.5943 50.9672 60.5431 50.9594 60.492 50.9594C60.4409 50.9594 60.3898 50.9594 60.3387 50.9594C60.2876 50.9594 60.2365 50.9594 60.1854 50.9594C60.1343 50.9594 60.0832 50.9672 60.0321 50.9828L59.6232 50.468H59.4699L59.3166 49.8128L59.8277 49.2044C59.8447 49.22 59.8703 49.2278 59.9043 49.2278C59.9554 49.2434 59.9639 49.2356 59.9299 49.2044L59.8277 49.1576H59.8788C59.981 49.0172 60.1002 48.8924 60.2365 48.7832C60.3898 48.6896 60.5431 48.596 60.6965 48.5024L60.7987 48.596L60.9264 48.4088C60.9605 48.3932 60.9605 48.3854 60.9264 48.3854C60.8924 48.3854 60.8668 48.3776 60.8498 48.362C60.935 48.2372 60.9775 48.089 60.9775 47.9174C60.9946 47.7458 60.9946 47.582 60.9775 47.426L61.0798 47.3792C61.0457 47.3324 61.0542 47.1842 61.1053 46.9346C61.1564 46.685 61.2331 46.4042 61.3353 46.0922C61.4375 45.7646 61.5312 45.4682 61.6164 45.203C61.7186 44.9222 61.7867 44.7428 61.8208 44.6648L61.6419 44.618L61.693 44.3138L61.8719 44.267C61.8719 44.267 61.8463 44.267 61.7952 44.267C61.7612 44.2514 61.7441 44.2202 61.7441 44.1734C61.8804 43.8614 62.0082 43.5494 62.1274 43.2374C62.2467 42.9254 62.3318 42.6056 62.3829 42.278L62.4341 42.3248C62.4681 42.3248 62.4937 42.3014 62.5107 42.2546C62.5448 42.1922 62.5703 42.1454 62.5874 42.1142L62.5363 41.7866L62.8429 41.3654C62.8088 41.303 62.7918 41.2406 62.7918 41.1782C62.7918 41.0846 62.8259 40.991 62.894 40.8974L63.1495 40.7804C63.0984 40.7024 63.0729 40.6322 63.0729 40.5698C63.0729 40.445 63.0984 40.3124 63.1495 40.172C63.2177 40.016 63.2347 39.8834 63.2006 39.7742C63.0303 39.8366 62.8514 39.821 62.664 39.7274C62.4766 39.6182 62.3148 39.5246 62.1785 39.4466C62.1615 39.4622 62.1274 39.47 62.0763 39.47C62.0082 39.47 61.923 39.431 61.8208 39.353C61.7186 39.275 61.6334 39.236 61.5653 39.236C61.4971 39.236 61.4545 39.2906 61.4375 39.3998L61.0798 39.353V39.2594H60.9009V39.1658L60.492 39.2594C60.5091 39.197 60.475 39.1502 60.3898 39.119C60.3047 39.0878 60.2535 39.041 60.2365 38.9786V38.9552C60.2365 38.8616 60.2961 38.8148 60.4154 38.8148C60.5517 38.8148 60.6283 38.807 60.6454 38.7914V38.651L61.1309 38.6042V38.7446L61.693 38.8382L61.7441 38.6042L62.1785 38.651L62.2807 38.7914L62.5874 38.7446L62.6896 38.8382H62.9962L62.894 38.7914C63.1836 38.807 63.4902 38.885 63.8139 39.0254C63.7628 38.9786 63.7372 38.9162 63.7372 38.8382C63.7372 38.7134 63.7884 38.5808 63.8906 38.4404C63.9928 38.2844 64.0524 38.1362 64.0694 37.9958C63.848 37.8866 63.7372 37.7306 63.7372 37.5278C63.7372 37.4186 63.7543 37.3172 63.7884 37.2236C63.8395 37.1144 63.882 37.013 63.9161 36.9194H64.1205L64.2483 36.6386L64.1461 36.4046C64.1461 36.3734 64.1802 36.3578 64.2483 36.3578C64.3164 36.3578 64.3505 36.3578 64.3505 36.3578L64.4783 36.2174C64.6827 36.233 64.8956 36.2954 65.1171 36.4046C65.3556 36.4982 65.4834 36.6542 65.5004 36.8726H65.5515C65.6537 36.8726 65.7048 36.9896 65.7048 37.2236C65.7048 37.3016 65.6963 37.3796 65.6793 37.4576C65.6622 37.52 65.6537 37.5668 65.6537 37.598H65.5004C65.4834 37.8164 65.4152 38.027 65.296 38.2298C65.1938 38.417 65.1256 38.6198 65.0915 38.8382L65.0404 38.7914C64.9893 38.7914 64.9553 38.8694 64.9382 39.0254C64.9212 39.1814 64.9042 39.275 64.8871 39.3062C65.0745 39.3218 65.2534 39.3842 65.4237 39.4934C65.5941 39.6026 65.7389 39.7196 65.8581 39.8444C66.3351 39.86 66.7525 40.0004 67.1102 40.2656C67.485 40.5308 67.8683 40.757 68.2601 40.9442L68.209 41.1782H68.5667L68.9245 41.5526L68.8223 41.7398C69.0096 41.7398 69.18 41.81 69.3333 41.9504C69.4866 42.0752 69.6144 42.2156 69.7166 42.3716C69.5803 42.3872 69.5122 42.4262 69.5122 42.4886C69.5122 42.5042 69.5207 42.512 69.5377 42.512C69.6059 42.512 69.6825 42.4652 69.7677 42.3716L69.8188 42.6992C69.8018 42.668 69.8103 42.6914 69.8444 42.7694C69.8784 42.8474 69.904 42.9644 69.921 43.1204H70.0743L70.1254 43.6352H70.1766C70.2617 43.6352 70.3554 43.6196 70.4576 43.5884C70.5598 43.5416 70.645 43.5104 70.7132 43.4948V43.3544L71.3264 43.0736C71.3605 43.0892 71.4116 43.097 71.4797 43.097C71.5649 43.097 71.6416 43.0814 71.7097 43.0502C71.7779 43.019 71.8375 42.9956 71.8886 42.98C71.8716 42.9956 71.863 43.019 71.863 43.0502C71.863 43.0658 71.863 43.0736 71.863 43.0736C71.8801 43.0736 71.8886 43.0814 71.8886 43.097C71.8886 43.1126 71.863 43.136 71.8119 43.1672C71.7779 43.1828 71.6842 43.2296 71.5309 43.3076V43.448L71.122 43.7288H70.9176L70.9687 43.799C70.7813 43.9082 70.5598 44.0174 70.3043 44.1266C70.0658 44.2202 69.887 44.2826 69.7677 44.3138V44.4542H69.7933C69.8444 44.4542 69.921 44.4542 70.0232 44.4542C70.1254 44.4542 70.1084 44.5088 69.9721 44.618L69.6655 44.9924L69.7677 45.086C69.6655 45.1484 69.5633 45.2186 69.4611 45.2966C69.3589 45.3746 69.3674 45.4604 69.4866 45.554L69.3333 45.788L69.1289 45.7412C69.18 45.9284 69.1374 46.0922 69.0011 46.2326C68.8648 46.373 68.7541 46.5212 68.6689 46.6772C68.6519 46.6616 68.6349 46.6538 68.6178 46.6538C68.5838 46.6538 68.5497 46.6772 68.5156 46.724C68.4986 46.7708 68.4986 46.8098 68.5156 46.841L68.209 47.0516V47.192L67.8512 47.426V47.5664L67.3657 47.8472L67.3146 47.9876L67.008 48.128L66.5225 48.4088V48.5492C66.0966 48.7832 65.6537 49.0094 65.1938 49.2278C64.7338 49.4462 64.2909 49.6724 63.865 49.9064L63.7117 49.766L63.6606 49.8128L63.7628 50C63.5413 50.0468 63.2858 50.1482 62.9962 50.3042C62.7237 50.4602 62.4852 50.4992 62.2807 50.4212L61.6419 50.9828L61.693 51.6614C61.5056 51.6614 61.4119 51.8096 61.4119 52.106C61.4119 52.2464 61.4205 52.3946 61.4375 52.5506C61.4716 52.7066 61.4886 52.8392 61.4886 52.9484C61.5227 52.964 61.5397 52.9484 61.5397 52.9016C61.5567 52.8548 61.5738 52.8392 61.5908 52.8548C61.6249 52.8704 61.6249 52.9094 61.5908 52.9718C61.5738 53.0342 61.5397 53.0576 61.4886 53.042C61.5056 53.276 61.5142 53.51 61.5142 53.744C61.5142 53.978 61.5142 54.2042 61.5142 54.4226C61.5142 54.6566 61.5056 54.8906 61.4886 55.1246C61.4886 55.3586 61.4716 55.5848 61.4375 55.8032C61.4716 55.8188 61.5056 55.811 61.5397 55.7798C61.5738 55.7642 61.5908 55.7408 61.5908 55.7096C61.6078 55.85 61.6249 55.9904 61.6419 56.1308C61.659 56.2712 61.6675 56.4116 61.6675 56.552C61.6675 56.786 61.6249 56.981 61.5397 57.137H61.7441L61.8719 57.4646L61.7441 57.5114L61.693 57.7922C61.8804 57.8546 62.0167 57.9794 62.1019 58.1666C62.2041 58.3538 62.3063 58.5332 62.4085 58.7048C62.5107 58.8764 62.6555 58.9778 62.8429 59.009C62.9792 59.1338 63.1751 59.1962 63.4306 59.1962C63.601 59.1962 63.7628 59.1728 63.9161 59.126C64.0865 59.0792 64.2313 59.0246 64.3505 58.9622L64.5294 59.0558L64.4783 59.3366L63.865 59.5238C64.0013 59.5862 63.9843 59.6408 63.8139 59.6876C63.6606 59.7344 63.5158 59.7656 63.3795 59.7812C63.3454 59.8124 63.3114 59.828 63.2773 59.828C63.2432 59.828 63.2177 59.8202 63.2006 59.8046C63.2006 59.8046 63.2092 59.8046 63.2262 59.8046C63.2432 59.8046 63.2943 59.7968 63.3795 59.7812C63.3965 59.75 63.4051 59.711 63.4051 59.6642C63.4221 59.6174 63.4051 59.6018 63.354 59.6174L62.8429 59.711L62.9962 59.8514ZM62.5363 47.0048C62.5363 47.0672 62.5277 47.1374 62.5107 47.2154C62.4937 47.2778 62.4852 47.3324 62.4852 47.3792H62.5363L63.0984 47.0516L63.1495 47.192L63.2006 47.0048C63.2347 47.0672 63.2517 47.0984 63.2517 47.0984C63.2517 47.0828 63.2858 47.0828 63.354 47.0984V47.0048L63.2517 46.9112C63.4732 46.8644 63.6521 46.7708 63.7884 46.6304C63.9417 46.4744 64.1291 46.412 64.3505 46.4432C64.4698 46.3652 64.5805 46.295 64.6827 46.2326C64.7849 46.1546 64.8871 46.0844 64.9893 46.022L65.0915 46.1156C65.2278 46.0064 65.3556 45.9206 65.4748 45.8582C65.5941 45.7802 65.7389 45.7256 65.9092 45.6944V45.6008H66.1648C66.1648 45.5228 66.1477 45.476 66.1137 45.4604C66.4203 45.398 66.6929 45.2966 66.9313 45.1562C67.1869 45.0158 67.4339 44.8754 67.6724 44.735C67.9279 44.5946 68.209 44.5166 68.5156 44.501V44.3138C68.6008 44.2046 68.6604 44.0954 68.6945 43.9862C68.7286 43.8614 68.7456 43.7366 68.7456 43.6118C68.7456 43.3622 68.703 43.1048 68.6178 42.8396L68.6689 42.6992C68.6349 42.5744 68.5752 42.4808 68.4901 42.4184C68.4219 42.3404 68.3964 42.2234 68.4134 42.0674L68.1068 42.0206C68.0727 41.8022 67.9875 41.693 67.8512 41.693C67.732 41.693 67.6298 41.6306 67.5446 41.5058C67.5105 41.4278 67.5105 41.3888 67.5446 41.3888C67.5957 41.3732 67.5787 41.3498 67.4935 41.3186C67.4935 41.4122 67.485 41.4512 67.468 41.4356C67.4509 41.42 67.4424 41.381 67.4424 41.3186C67.3061 41.2718 67.1613 41.2094 67.008 41.1314V40.8506H66.9313L66.8802 41.0378H66.778C66.7099 40.9598 66.5821 40.8662 66.3947 40.757C66.2244 40.6322 66.0966 40.562 66.0114 40.5464C66.0285 40.6088 66.037 40.64 66.037 40.64C66.054 40.6244 66.0285 40.64 65.9603 40.6868C65.8411 40.5464 65.6452 40.4606 65.3726 40.4294C65.1171 40.3982 64.9212 40.2812 64.7849 40.0784C64.5464 40.1564 64.4016 40.289 64.3505 40.4762C64.2994 40.6634 64.2653 40.8584 64.2483 41.0612C64.2313 41.264 64.1546 41.4434 64.0183 41.5994L63.9672 41.459C63.9502 41.6774 63.9161 41.8724 63.865 42.044C63.8139 42.2156 63.7628 42.4184 63.7117 42.6524C63.6436 42.668 63.601 42.6914 63.5839 42.7226C63.5839 42.7382 63.5584 42.7616 63.5073 42.7928C63.5924 42.824 63.6265 42.863 63.6095 42.9098C63.6095 42.941 63.6095 42.9956 63.6095 43.0736L63.4051 43.1204C63.4732 43.136 63.5073 43.1438 63.5073 43.1438C63.5073 43.1282 63.5243 43.1516 63.5584 43.214C63.4902 43.3076 63.4221 43.4636 63.354 43.682C63.2858 43.8848 63.2262 44.1032 63.1751 44.3372C63.141 44.5556 63.1155 44.7272 63.0984 44.852L62.9451 44.9456V45.4604C62.8259 45.554 62.7407 45.6476 62.6896 45.7412C62.7577 45.7568 62.7918 45.7646 62.7918 45.7646C62.7918 45.749 62.8088 45.7724 62.8429 45.8348C62.7237 45.9908 62.6725 46.1702 62.6896 46.373C62.7236 46.5602 62.6385 46.7006 62.4341 46.7942C62.5022 46.841 62.5363 46.9112 62.5363 47.0048ZM62.0763 49.3682C62.1615 49.3682 62.2467 49.3838 62.3318 49.415L62.3829 49.3214C62.3318 49.3058 62.3063 49.3058 62.3063 49.3214C62.3233 49.337 62.3148 49.3214 62.2807 49.2746H62.4341C62.4681 49.337 62.4852 49.3604 62.4852 49.3448C62.5022 49.3292 62.5363 49.337 62.5874 49.3682C62.5874 49.337 62.5874 49.3058 62.5874 49.2746C62.5874 49.259 62.6044 49.2356 62.6385 49.2044L62.9451 49.1576C62.9281 49.0952 62.9281 49.0328 62.9451 48.9704C63.1836 48.9548 63.3199 48.9392 63.354 48.9236C63.388 48.908 63.4051 48.8846 63.4051 48.8534C63.4051 48.8222 63.4562 48.7832 63.5584 48.7364L63.6095 48.7832C63.7458 48.674 63.8309 48.6038 63.865 48.5726C63.8991 48.5414 64.0098 48.5336 64.1972 48.5492V48.5024C64.1972 48.3932 64.2398 48.323 64.325 48.2918C64.4272 48.245 64.5123 48.1904 64.5805 48.128L64.6827 48.2216C64.7338 48.0812 64.8531 47.9486 65.0404 47.8238C65.2449 47.699 65.4578 47.5742 65.6793 47.4494C65.9007 47.3246 66.0455 47.192 66.1137 47.0516H66.1648C66.1648 47.114 66.1818 47.1608 66.2159 47.192L66.3181 47.1452C66.3181 47.114 66.3096 47.0828 66.2925 47.0516C66.2925 47.0048 66.301 46.958 66.3181 46.9112L66.4203 47.0984H66.4714V46.9112C66.4033 46.9112 66.3607 46.9034 66.3436 46.8878C66.3266 46.8566 66.3521 46.841 66.4203 46.841C66.4714 46.7786 66.5566 46.685 66.6758 46.5602C66.8121 46.4354 66.9228 46.3652 67.008 46.3496C67.0932 46.3184 67.1358 46.3262 67.1358 46.373C67.1528 46.4198 67.1954 46.3964 67.2635 46.3028L67.1613 46.2092C67.2465 46.1624 67.3061 46.1156 67.3402 46.0688C67.3743 46.022 67.4424 45.9908 67.5446 45.9752L67.5957 45.7412C67.732 45.6944 67.8342 45.6242 67.9024 45.5306C67.9875 45.437 68.0897 45.3668 68.209 45.32V45.2732L67.749 45.2264V45.3668C67.6468 45.3668 67.5531 45.3746 67.468 45.3902C67.3828 45.4058 67.2976 45.4292 67.2124 45.4604V45.6476C67.0761 45.6632 66.9569 45.7022 66.8547 45.7646C66.7525 45.827 66.6417 45.8348 66.5225 45.788V45.8348L66.6247 45.9284C66.5566 45.944 66.4458 45.983 66.2925 46.0454C66.1392 46.0922 66.0455 46.1 66.0114 46.0688C65.9263 46.178 65.807 46.2872 65.6537 46.3964C65.5174 46.49 65.3641 46.5368 65.1938 46.5368C65.1597 46.5368 65.1256 46.5368 65.0915 46.5368C65.0575 46.5212 65.0234 46.5056 64.9893 46.49V46.6304L65.0915 46.6772C64.9723 46.6772 64.8531 46.7084 64.7338 46.7708C64.6146 46.8332 64.4868 46.88 64.3505 46.9112V47.0516C64.2142 47.0984 64.0865 47.1764 63.9672 47.2856C63.865 47.3792 63.7458 47.4416 63.6095 47.4728C63.2858 47.582 62.9621 47.7458 62.6385 47.9642C62.3318 48.167 62.1104 48.4244 61.9741 48.7364C62.0422 48.7208 62.1104 48.7208 62.1785 48.7364C62.1104 48.8144 62.0763 48.908 62.0763 49.0172C62.0933 49.1264 62.0933 49.2434 62.0763 49.3682Z" fill="#29235C"/>
</svg>
