<svg width="65" height="65" viewBox="0 0 65 65" fill="none" xmlns="http://www.w3.org/2000/svg">
<path d="M65 32.4675C65 14.5437 50.44 0 32.5 0C14.56 0 0 14.5437 0 32.4675C0 42.3394 4.485 51.2362 11.505 57.2081C11.57 57.2731 11.635 57.2731 11.635 57.3381C12.22 57.7931 12.805 58.2481 13.455 58.7031C13.78 58.8981 14.04 59.1541 14.365 59.4141C19.7359 63.0555 26.076 65.0015 32.565 65C39.054 65.0015 45.3941 63.0555 50.765 59.4141C51.09 59.2191 51.35 58.9631 51.675 58.7641C52.26 58.3131 52.91 57.8581 53.495 57.4031C53.56 57.3381 53.625 57.3381 53.625 57.2731C60.515 51.2322 65 42.3394 65 32.4675ZM32.5 60.9091C26.39 60.9091 20.8 58.9591 16.185 55.7131C16.25 55.1931 16.38 54.6772 16.51 54.1572C16.8973 52.7479 17.4654 51.3947 18.2 50.1313C18.915 48.8963 19.76 47.7913 20.8 46.8162C21.775 45.8413 22.945 44.9353 24.115 44.2203C25.35 43.5053 26.65 42.9853 28.08 42.5953C29.5211 42.2069 31.0074 42.0115 32.5 42.0144C36.9308 41.983 41.1987 43.6826 44.395 46.7513C45.89 48.2463 47.06 50.0013 47.905 52.0122C48.36 53.1822 48.685 54.4172 48.88 55.7131C44.0829 59.0856 38.3639 60.8998 32.5 60.9091ZM22.555 30.8466C21.9823 29.5353 21.6943 28.1174 21.71 26.6866C21.71 25.2606 21.97 23.8306 22.555 22.5306C23.14 21.2306 23.92 20.0647 24.895 19.0897C25.87 18.1147 27.04 17.3388 28.34 16.7537C29.64 16.1688 31.07 15.9087 32.5 15.9087C33.995 15.9087 35.36 16.1688 36.66 16.7537C37.96 17.3388 39.13 18.1187 40.105 19.0897C41.08 20.0647 41.86 21.2347 42.445 22.5306C43.03 23.8306 43.29 25.2606 43.29 26.6866C43.29 28.1816 43.03 29.5466 42.445 30.8425C41.8804 32.1233 41.0875 33.2906 40.105 34.2875C39.1078 35.2686 37.9405 36.0601 36.66 36.6234C33.974 37.7273 30.961 37.7273 28.275 36.6234C26.9945 36.0601 25.8272 35.2686 24.83 34.2875C23.8461 33.3051 23.0721 32.1372 22.555 30.8466ZM52.715 52.4022C52.715 52.2722 52.65 52.2072 52.65 52.0772C52.0107 50.0436 51.0685 48.118 49.855 46.3653C48.6404 44.5997 47.1477 43.0425 45.435 41.7544C44.127 40.7704 42.7092 39.9415 41.21 39.2844C41.892 38.8344 42.5239 38.3128 43.095 37.7284C44.0641 36.7717 44.9151 35.7025 45.63 34.5434C47.0696 32.1783 47.813 29.4551 47.775 26.6866C47.7951 24.6371 47.397 22.6051 46.605 20.7147C45.8231 18.8932 44.6975 17.2394 43.29 15.8438C41.8845 14.4626 40.2304 13.3599 38.415 12.5938C36.5215 11.8032 34.4868 11.4065 32.435 11.4278C30.3829 11.4077 28.3482 11.8058 26.455 12.5978C24.6238 13.3623 22.9658 14.4884 21.58 15.9087C20.1989 17.3127 19.0962 18.9655 18.33 20.7797C17.538 22.6701 17.1399 24.7021 17.16 26.7516C17.16 28.1816 17.355 29.5466 17.745 30.8425C18.135 32.2075 18.655 33.4425 19.37 34.6084C20.02 35.7784 20.93 36.8184 21.905 37.7934C22.49 38.3784 23.14 38.8944 23.855 39.3494C22.3512 40.024 20.9329 40.875 19.63 41.8844C17.94 43.1844 16.445 44.7403 15.21 46.4303C13.9842 48.1757 13.0409 50.1033 12.415 52.1422C12.35 52.2722 12.35 52.4022 12.35 52.4672C7.215 47.2712 4.03 40.2594 4.03 32.4675C4.03 16.8188 16.835 4.02594 32.5 4.02594C48.165 4.02594 60.97 16.8188 60.97 32.4675C60.9615 39.9423 57.9935 47.1097 52.715 52.4022Z" fill="#29235C"/>
</svg>
