<svg width="80" height="80" viewBox="0 0 80 80" fill="none" xmlns="http://www.w3.org/2000/svg">
<path d="M7.33333 60H20.6667C22.5 60 24 58.5 24 56.6667C24 54.8333 22.5 53.3333 20.6667 53.3333H7.33333C5.5 53.3333 4 54.8333 4 56.6667C4 58.5 5.5 60 7.33333 60ZM4 23.3333C4 25.1667 5.5 26.6667 7.33333 26.6667H60.6667C62.5 26.6667 64 25.1667 64 23.3333C64 21.5 62.5 20 60.6667 20H7.33333C5.5 20 4 21.5 4 23.3333ZM7.33333 43.3333H40.6667C42.5 43.3333 44 41.8333 44 40C44 38.1667 42.5 36.6667 40.6667 36.6667H7.33333C5.5 36.6667 4 38.1667 4 40C4 41.8333 5.5 43.3333 7.33333 43.3333Z" fill="black"/>
</svg>
