<svg width="65" height="62" viewBox="0 0 65 62" fill="none" xmlns="http://www.w3.org/2000/svg">
<path fill-rule="evenodd" clip-rule="evenodd" d="M3.16902 0.134782C2.57367 -0.0745991 1.91953 -0.0389037 1.3505 0.234016C0.781469 0.506937 0.344163 0.994725 0.134782 1.59007C-0.0745993 2.18542 -0.0389035 2.83956 0.234017 3.40859C0.506937 3.97762 0.994725 4.41493 1.59007 4.62431L2.42076 4.91283C4.53553 5.65792 5.92741 6.14935 6.95151 6.65347C7.91219 7.12589 8.33705 7.50953 8.61606 7.91536C8.90141 8.33388 9.12335 8.91092 9.25017 10.0618C9.37699 11.2667 9.38017 12.8361 9.38017 15.1823V23.8126C9.38017 28.4194 9.42455 31.739 9.85892 34.2755C10.3218 36.9832 11.2476 38.9235 12.9819 40.7498C14.8653 42.7377 17.2495 43.6033 20.0935 44.0028C22.8139 44.3896 26.2698 44.3896 30.5342 44.3896H47.6743C50.0269 44.3896 52.0053 44.3896 53.6033 44.193C55.3059 43.9869 56.8531 43.5304 58.2069 42.4302C59.5576 41.3268 60.3154 39.9032 60.8607 38.2799C61.3775 36.7517 61.777 34.8145 62.2526 32.5095L63.8632 24.6813L63.8696 24.6655L63.9013 24.5006C64.4244 21.8849 64.862 19.6845 64.9729 17.9153C65.0871 16.0574 64.8747 14.2248 63.6635 12.6522C62.9184 11.682 61.8721 11.1335 60.9178 10.8006C59.8868 10.4616 58.8213 10.2382 57.7409 10.1348C55.5595 9.8938 52.9153 9.8938 50.3217 9.8938H14.006C13.9965 9.77956 13.9859 9.66542 13.9743 9.55138C13.8031 7.9756 13.4353 6.53933 12.5381 5.23306C11.6376 3.9141 10.4391 3.07073 9.04409 2.38272C7.73781 1.74226 6.07643 1.15888 4.12019 0.470862L3.16585 0.134782H3.16902ZM14.1392 14.6497H50.2203C52.9343 14.6497 55.3249 14.6528 57.2114 14.8621C58.1499 14.9699 58.8506 15.1157 59.342 15.2869C59.5426 15.3443 59.7315 15.4366 59.9 15.5596C60.0966 15.8196 60.3059 16.2888 60.2234 17.6236C60.1378 19.0314 59.77 20.9084 59.2057 23.7302V23.7365L57.6204 31.4093C57.1131 33.8918 56.7643 35.5405 56.3553 36.7612C55.9654 37.9216 55.5976 38.4194 55.2012 38.7428C54.8049 39.0662 54.2406 39.3262 53.0294 39.472C51.7485 39.6306 50.0649 39.6337 47.5316 39.6337H30.7181C26.2254 39.6337 23.1087 39.6274 20.7625 39.2945C18.4924 38.9743 17.2971 38.3909 16.4315 37.4778C15.4169 36.4061 14.8684 35.3598 14.545 33.4733C14.1963 31.4125 14.136 28.5336 14.136 23.8126L14.1392 14.6497ZM19.8177 61.8277C17.9257 61.8277 16.1112 61.0761 14.7733 59.7383C13.4355 58.4005 12.6839 56.586 12.6839 54.694C12.6839 52.802 13.4355 50.9875 14.7733 49.6496C16.1112 48.3118 17.9257 47.5602 19.8177 47.5602C21.7097 47.5602 23.5242 48.3118 24.862 49.6496C26.1999 50.9875 26.9515 52.802 26.9515 54.694C26.9515 56.586 26.1999 58.4005 24.862 59.7383C23.5242 61.0761 21.7097 61.8277 19.8177 61.8277ZM17.4398 54.694C17.4398 55.3246 17.6903 55.9295 18.1362 56.3754C18.5822 56.8214 19.187 57.0719 19.8177 57.0719C20.4483 57.0719 21.0532 56.8214 21.4991 56.3754C21.9451 55.9295 22.1956 55.3246 22.1956 54.694C22.1956 54.0633 21.9451 53.4585 21.4991 53.0125C21.0532 52.5666 20.4483 52.316 19.8177 52.316C19.187 52.316 18.5822 52.5666 18.1362 53.0125C17.6903 53.4585 17.4398 54.0633 17.4398 54.694ZM48.3528 61.8277C46.4608 61.8277 44.6463 61.0761 43.3085 59.7383C41.9706 58.4005 41.219 56.586 41.219 54.694C41.219 52.802 41.9706 50.9875 43.3085 49.6496C44.6463 48.3118 46.4608 47.5602 48.3528 47.5602C50.2448 47.5602 52.0593 48.3118 53.3972 49.6496C54.735 50.9875 55.4866 52.802 55.4866 54.694C55.4866 56.586 54.735 58.4005 53.3972 59.7383C52.0593 61.0761 50.2448 61.8277 48.3528 61.8277ZM45.9749 54.694C45.9749 55.3246 46.2254 55.9295 46.6714 56.3754C47.1173 56.8214 47.7221 57.0719 48.3528 57.0719C48.9835 57.0719 49.5883 56.8214 50.0343 56.3754C50.4802 55.9295 50.7307 55.3246 50.7307 54.694C50.7307 54.0633 50.4802 53.4585 50.0343 53.0125C49.5883 52.5666 48.9835 52.316 48.3528 52.316C47.7221 52.316 47.1173 52.5666 46.6714 53.0125C46.2254 53.4585 45.9749 54.0633 45.9749 54.694Z" fill="#29235C"/>
</svg>
